<?xml version="1.0" encoding="UTF-8"?>
<svg version="1.1" viewBox="0 0 2048 2048" width="1280" height="1280" xmlns="http://www.w3.org/2000/svg">
<path transform="translate(0)" d="m0 0h2048v2048h-2048z" fill="#FDFDFD"/>
<path transform="translate(1309,519)" d="m0 0 6 2 44 29 13 10 16 13 11 9 10 9 8 7 32 32 7 8 12 14 8 10 14 19 16 23 13 21 15 27 9 17 13 29 11 29 12 38 9 37 5 28 4 31 3 42v39l-4 46-5 33-7 34-7 23-11 27-10 20-10 17-15 22-10 13-12 14-9 10-27 27-11 9-14 12-20 15-10 7-17 11-25 15-25 13-16 8-25 11-28 10-24 8-30 8-44 8-25 3h-62l-19-2-19-4-16-7-10-8-7-7-8-16-2-8v-9l4-13 4-8 9-9 14-9 16-6 22-3h17l17 2 31 7 26 6 30 4h22l27-4 21-6 16-6 16-8 11-8 7-6 7-11 2-6v-8l-4-8-10-6-9-3-6-1h-36l-27 4-30 7-46 13-43 10-39 7-27 4-21 2h-42l-25-3-18-4-15-6-14-8-11-9-9-9-10-14-7-15-4-14v-21l4-15 8-12 10-10 14-9 16-6 17-3h24l26 3 31 6 54 12 40 7 31 3h31l27-4 27-6 26-8 17-7 29-14 14-8 18-12 16-12 11-9 12-11 16-16 9-11 15-20 10-15 9-15 8-16 7-15 9-24 6-19 6-27 4-36 1-15v-31l-2-29-4-30-7-34-8-28-10-29-14-33-13-26-13-22-12-19-12-16-10-13-9-10-7-8-20-20-14-11-18-14z" fill="#5CB0CD"/>
<path transform="translate(901,580)" d="m0 0h49l26 3 16 4 16 8 11 10 9 14 4 13v7l-3 12-5 9-9 10-8 6-15 7-19 5-10 1h-18l-26-4-37-9-21-4-22-2h-11l-29 3-21 5-26 10-16 9-11 9-8 10-4 9v8l3 7 5 5 13 5 11 2h24l27-3 24-5 48-13 30-8 51-11 35-5 35-3h39l21 3 19 5 15 6 16 10 13 12 8 9 9 16 5 13 2 9v20l-4 14-6 11-9 10-9 7-16 8-15 4-12 2-30-2-27-4-34-7-55-12-33-5-23-2h-28l-29 4-23 5-19 5-27 10-20 9-16 8-15 9-19 13-13 10-14 12-11 10-7 8-12 13-13 17-12 17-12 21-8 16-7 15-9 24-7 25-6 32-3 28v50l3 33 6 35 8 32 12 36 11 27 12 25 11 21 15 24 13 18 10 13 11 13 7 8 28 28 16 12 15 10-1 2-11-6-21-14-20-14-19-14-11-9-14-12-16-15-8-7-14-14-7-8-10-11-11-14-12-15-14-19-15-23-15-25-13-24-12-25-10-24-11-30-9-31-7-29-6-33-4-33-2-28v-48l3-37 5-38 9-43 6-20 10-24 10-20 15-25 8-11 9-12 9-11 12-14 30-30 11-9 13-11 17-13 18-13 26-16 25-14 17-9 31-14 21-8 36-12 24-7 42-8 31-4z" fill="#5BAFCC"/>
<path transform="translate(716,914)" d="m0 0 2 1-10 15-12 23-8 21-5 18-3 18-1 12v16l2 21 5 24 8 24 9 20 9 17 12 19 11 16 9 12 9 11 12 14 12 13 11 12 23 23 8 7 8 8 8 7 11 10 11 9 10 9 10 8 14 11 10 9 8 7 12 13 10 13 10 15 9 16 9 20 8 26 3 15 2 21-1 17-3 17-5 15-8 15-11 12-8 7-15 7-14 4h-21l-25-5-29-9-25-10-19-9-21-12-21-14-11-8-9-7-11-9-13-12-19-19-9-11-12-15-12-17-10-15-12-21-12-23-12-28-10-30-9-36-5-29-3-30v-48l3-29 7-36 7-24 8-22 12-26 10-18 10-15 12-16 8-10 9-10 19-19 14-11 13-10z" fill="#345773"/>
<path transform="translate(1145,464)" d="m0 0h17l24 5 26 8 27 11 31 15 20 12 20 14 18 14 13 12 24 24 9 11 11 13 12 17 13 20 13 23 12 25 12 30 8 25 7 29 5 28 3 28 1 16v28l-2 25-4 27-6 27-7 24-11 27-12 25-13 21-13 18-11 13-16 17-12 11-9 8-16 12-7 5-2-1 9-15 10-18 8-19 6-19 4-21 1-8v-30l-3-22-5-21-7-20-12-26-12-21-15-22-12-16-9-11-9-10-7-8-22-24-9-9-8-7-13-13-8-7-12-11-11-9-10-9-11-9-16-13-13-11-15-15-11-14-12-18-9-16-9-20-6-19-5-25-1-9v-20l3-20 6-18 7-13 8-10 10-9 16-8 12-3z" fill="#345773"/>
<path transform="translate(874,481)" d="m0 0h11l16 3 14 5 11 7 8 7 7 11 1 3v15l-4 8-7 8-14 9-19 7-22 5-49 6-31 6-26 7-26 9-34 14-20 10-23 13-14 8-19 13-19 14-16 13-11 9-15 13-15 15-7 8-10 11-18 22-13 18-13 20-10 18-1-4 12-26 12-25 13-25 13-22 15-22 14-19 13-16 8-10 11-12 14-15 19-19 8-7 10-9 14-11 15-12 19-13 24-16 20-12 23-12 21-9 24-8 21-5 32-5z" fill="#5CB0CD"/>
<path transform="translate(1561,1230)" d="m0 0 1 3-8 18-22 46-12 22-12 19-10 15-13 18-11 14-11 13-13 14-7 8-25 25-8 7-10 9-14 11-15 12-34 24-15 9-17 10-15 8-20 9-25 9-23 6-32 5-10 1h-18l-17-3-13-5-10-6-10-9-6-11-1-4v-11l4-9 9-10 14-8 18-7 19-4 56-7 26-5 32-9 29-10 24-10 16-8 19-10 39-24 19-14 18-14 10-9 8-7 12-11 19-19 7-8 13-15 10-13 12-17 10-15z" fill="#5CB0CD"/>
<path transform="translate(469,536)" d="m0 0h15l12 4 10 7 15 15 9 14 9 19 5 18 2 14v11l-3 18-6 18-16 34-13 29-12 30-11 30-7 21-12 43-7 30-7 39-4 30-2 24-1 23-1 10h-1l-1-22v-36l2-40 4-39 6-39 9-55 4-37 1-15v-40l-3-22-5-17-9-20-12-21-5-11-2-8v-15l4-15 6-11 9-10 8-5z" fill="#5CB0CD"/>
<path transform="translate(1603,1034)" d="m0 0h1l1 6v74l-4 41-7 49-9 57-4 34-1 16v40l3 22 6 21 9 19 11 19 6 16 1 5v14l-3 12-5 10-8 10-9 7-9 4-5 1h-10l-12-3-10-6-10-9-9-10-12-21-8-20-3-14-1-17 3-19 5-16 9-21 15-32 15-36 14-38 10-32 8-29 8-34 6-33 5-38 2-25z" fill="#5CB0CD"/>
<path transform="translate(666,448)" d="m0 0h11l12 4 9 8 4 8 1 4v12l-5 15-7 13-12 16-9 11-48 48-7 8-9 10-9 11-11 13-9 12-5 6-1-2 12-20 13-24 12-24 10-26 5-21 3-27 3-22 5-12 6-8 8-7 13-5z" fill="#5BAFCC"/>
<path transform="translate(1478,1396)" d="m0 0v3l-16 27-15 29-10 21-8 24-4 17-5 43-4 14-7 11-10 8-12 5-6 1h-8l-13-4-10-9-4-7-1-4v-10l3-12 8-16 10-14 9-11 12-13 16-17 25-25 7-8 11-12 9-11 11-14z" fill="#5CB0CD"/>
<path transform="translate(931,1283)" d="m0 0 10 1 39 12 28 7 23 4 19 2 16 1h38l31-4 17-3 4 1-19 6-37 8-33 5-24 2h-43l-24-3-19-5-12-5-13-7-9-7-2-3 1-7 6-4z" fill="#D8F2FD"/>
<path transform="translate(1013,721)" d="m0 0h32l26 3 17 4 16 6 14 8 8 7 1 7-4 5-4 2h-7l-27-8-28-8-27-6-30-4-14-1h-39l-33 4-12 2h-5l3-2 27-7 44-8 27-3z" fill="#D8F2FD"/>
<path transform="translate(865,492)" d="m0 0h18l19 3 12 5 8 5 5 5 2 4-1 4-5 1-13-1-28-6-16-2-14-1h-11l-27 3-22 5-33 9-5 1v-2l28-12 36-12 25-6z" fill="#D8F2FD"/>
<path transform="translate(1288,1521)" d="m0 0 4 1-23 10-24 9-25 7-25 5-7 1h-26l-18-4-14-6-10-8-1-5 3-3 8-1 31 7 23 3h30l18-2 23-5z" fill="#D8F2FD"/>
<path transform="translate(900,592)" d="m0 0h36l31 4 15 5 17 9 8 6 2 3v5l-5 4-10-2-35-13-23-7-17-4-16-2-18-1h-13l-26 1v-1l23-4z" fill="#D8F2FD"/>
<path transform="translate(1043,1419)" d="m0 0h8l20 8 19 7 20 6 25 5 20 2h27l18-1-3 2-16 3-17 2-24 1h-22l-25-2-15-3-15-5-15-8-8-7-1-6z" fill="#D8F2FD"/>
<path transform="translate(664,453)" d="m0 0h6l1 3-4 5-13 9-7 8-7 14-6 20h-1v-15l3-17 6-12 10-10z" fill="#D8F2FD"/>
<path transform="translate(1609,1469)" d="m0 0 1 2-5 12-7 9-8 7-9 4-4 1h-13l-8-3-4-5 1-3h22l13-3 10-6 8-11z" fill="#DAF2FD"/>
<path transform="translate(1415,1532)" d="m0 0h1v10l-3 21-5 12-7 8-7 6-11 4-7-1 2-4 14-10 8-8 6-10 8-24z" fill="#D8F2FD"/>
<path transform="translate(469,543)" d="m0 0h18l7 3 2 4v4l-4 1-7-1h-17l-10 3-9 6-7 9-1-4 6-10 9-9 10-5z" fill="#D8F2FD"/>
<path transform="translate(1600,1011)" d="m0 0h1l1 11h2l1 8v10h-1l-3 43h-1l-1-14-1 6h-1v-9l2-24z" fill="#D8F2FD"/>
<path transform="translate(636,487)" d="m0 0 4 2-2 9-4 14h-1v-15l1-7z" fill="#ECF8FD"/>
<path transform="translate(577,636)" d="m0 0h2l-1 4-6 7-1-2z" fill="#4B8AA6"/>
</svg>
