<?xml version="1.0" encoding="UTF-8"?>
<svg version="1.1" viewBox="0 0 2048 2048" width="1280" height="1280" xmlns="http://www.w3.org/2000/svg">
<path transform="translate(0)" d="m0 0h2048v2048h-2048z" fill="#335772"/>
<path transform="translate(1311,521)" d="m0 0 6 2 20 12 25 17 12 9 14 11 14 12 8 7 10 9 27 27 9 11 9 10 9 11 10 13 12 17 20 30 13 23 15 28 14 32 11 29 10 32 8 32 6 31 4 29 3 35v57l-3 39-6 40-6 28-11 33-12 27-11 20-12 19-14 19-14 17-7 8-8 8-7 8-17 16-11 9-14 12-16 12-20 14-24 15-16 9-23 12-23 11-33 13-40 13-24 6-36 7-22 3-31 2h-28l-29-2-22-4-15-6-12-9-7-7-6-10-4-14v-13l4-12 6-9 10-9 14-8 17-5 14-2h22l22 3 31 7 28 6 27 3h13l19-2 25-6 18-6 21-10 11-8 10-9 6-11 1-8-4-10-9-6-12-4-7-1h-31l-32 5-32 8-44 12-43 10-34 6-27 4-19 2h-53l-26-4-20-6-19-10-14-12-9-10-9-14-5-11-4-14-1-7v-9l3-16 7-14 11-12 8-6 14-7 17-5 12-2h15l22 2 35 6 59 13 31 6 32 4 12 1h28l30-5 27-6 33-11 26-12 21-11 21-14 18-13 11-10 8-7 4-4h2l2-4 13-13 11-14 10-13 12-18 9-16 8-16 10-23 10-30 6-26 3-21 2-21 1-19v-16l-2-35-5-35-8-36-9-30-10-28-13-30-13-26-12-20-16-24-9-12-13-16-12-13-11-12-12-12-12-9-13-9z" fill="#5CB1CD"/>
<path transform="translate(898,580)" d="m0 0h53l27 3 16 4 13 7 10 9 7 8 6 12 2 8v8l-2 10-6 12-9 10-10 7-12 5-19 5-7 1h-23l-26-4-30-7-29-6-8-1h-34l-21 3-19 5-21 8-14 7-14 10-8 8-6 11-1 8 3 8 7 6 8 4 9 2 9 1h15l30-3 25-5 77-21 46-10 32-5 40-4h45l21 3 17 4 17 7 14 9 11 9 7 7 10 15 6 13 3 9 2 14-1 16-5 14-6 10-8 9-13 9-14 6-16 4-15 1-29-2-31-5-73-16-27-5-25-3-16-1h-18l-27 3-29 6-22 6-26 10-24 11-21 11-22 15-17 13-15 13-18 18-9 11-11 13-13 19-10 17-12 23-8 19-7 19-7 26-5 26-4 35v44l2 25 4 28 7 33 7 25 12 35 14 32 11 22 14 24 9 14 12 17 11 14 11 13 9 10 17 17 8 7 13 10 10 7 8 6-3 1-23-14-14-10-22-15-14-11-11-9-14-12-13-12-15-14-7-7-7-8-10-11-22-28-14-19-14-21-13-21-15-27-16-33-11-28-10-28-10-36-7-32-5-32-3-31-1-16v-52l2-32 4-34 7-36 5-20 9-25 9-20 10-19 12-19 12-17 11-14 13-15 14-14 7-8 16-15 11-9 13-11 11-8 15-11 19-12 20-12 28-15 23-11 27-11 44-15 27-7 31-6 34-5z" fill="#5CB1CD"/>
<path transform="translate(716,914)" d="m0 0 1 2-9 14-13 25-8 21-5 20-3 21v28l3 21 5 21 6 18 9 20 11 21 14 22 11 15 9 12 13 15 9 10 7 8 12 13 21 21 2 1v2l4 2 10 10 8 7 12 11 11 9 10 9 14 11 16 13 16 15 12 14 12 16 9 15 8 16 8 19 6 21 3 16 1 9v25l-3 18-5 16-7 13-7 9-9 9-10 6-16 6-9 2h-17l-26-5-27-8-26-10-25-12-22-13-19-13-21-16-10-9-8-7-21-21-9-11-12-15-13-18-12-19-14-25-11-23-10-25-9-28-7-28-5-27-3-26-1-16v-36l2-25 4-26 6-27 8-26 10-24 11-23 12-19 12-17 13-16 12-13 12-12 11-9 15-12z" fill="#FDFDFD"/>
<path transform="translate(1149,464)" d="m0 0h9l19 3 29 8 24 9 28 13 21 11 19 12 16 12 14 11 15 14 19 19 7 8 10 12 13 17 12 18 11 18 12 22 12 27 9 24 6 19 7 28 5 27 3 23 1 15v48l-3 29-7 36-8 27-8 21-9 20-12 22-8 12-10 14-9 11-9 10-11 12-8 7-12 11-20 15-5 2 6-11 9-16 9-19 7-21 5-23 2-20-1-24-3-20-7-26-8-20-11-23-12-20-13-19-12-16-9-11-12-14-14-15-11-12-8-7v-2l-4-2-18-18-8-7-12-11-11-9-11-10-11-9-17-14-11-9-15-15-9-11-12-17-13-23-10-25-5-17-4-24-1-11v-10l2-18 5-19 8-16 8-11 10-9 12-7 13-4z" fill="#FDFDFD"/>
<path transform="translate(869,481)" d="m0 0h19l16 3 16 7 9 7 8 8 5 9 1 4v10l-4 10-7 8-7 6-16 8-17 5-23 4-52 7-25 5-30 9-27 10-28 12-24 12-23 13-30 20-16 12-16 13-11 9-16 15-3 3h-2v2l-5 4-1 2h-2l-2 4-8 8-7 8-9 10-12 16-13 18-13 21-7 12-1-3 15-32 11-23 13-25 12-20 15-22 14-19 14-17 12-14 11-12 8-8 7-8 17-16 8-7 14-12 9-7 13-10 20-14 17-11 20-12 18-10 17-8 24-9 19-6 23-5 21-3z" fill="#5CB1CD"/>
<path transform="translate(1560,1232)" d="m0 0 1 3-8 18-13 28-13 26-8 14-13 21-16 23-10 13-9 11-18 20-7 8-33 33-11 9-10 9-13 10-17 13-20 14-17 11-19 11-23 12-25 10-21 7-24 5-27 4h-29l-17-4-10-4-10-7-9-9-6-12-1-3v-8l3-9 5-7 10-8 15-8 20-6 26-4 41-5 29-6 29-8 26-9 24-10 25-12 16-9 20-12 22-14 24-18 11-9 11-10 8-7 13-12 12-13 13-14 9-11 12-15 13-19 10-15 8-15z" fill="#5CB1CD"/>
<path transform="translate(474,535)" d="m0 0 12 1 11 4 11 8 12 12 10 15 9 19 5 17 2 12v18l-3 15-7 21-15 32-16 36-11 28-11 30-9 30-10 37-10 52-4 28-2 19-3 48h-1l-2-16v-47l1-29 4-40 5-34 10-62 4-33 2-27v-35l-3-20-4-15-8-18-11-21-7-13-3-11v-19l4-13 5-9 9-10 9-6 8-3z" fill="#5CB1CD"/>
<path transform="translate(1603,1028)" d="m0 0h1l1 6 1 46-1 34-3 37-7 49-9 56-4 33-2 27v32l3 24 6 21 10 21 10 17 5 12 2 8v17l-3 11-5 10-8 10-12 9-10 3h-13l-10-3-12-7-11-10-9-12-10-18-6-15-4-17-1-10v-11l2-14 6-20 9-20 14-30 17-40 15-42 12-39 8-33 8-42 6-44 2-27 1-21z" fill="#5CB1CD"/>
<path transform="translate(1479,1395)" d="m0 0v3l-13 22-13 24-15 31-7 19-5 21-3 22-3 24-4 13-7 11-11 9-9 4-4 1h-14l-10-3-9-6-5-7-3-10 1-11 4-12 6-12 9-13 13-16 7-7 7-8 28-28 7-8 14-15 12-14 11-14 10-13z" fill="#5CB1CD"/>
<path transform="translate(665,448)" d="m0 0h14l9 3 9 7 4 6 2 6v15l-5 15-7 13-12 16-12 13-11 12-43 43-9 11-12 14-10 12-12 16-1-2 12-20 12-22 10-19 10-24 7-21 4-20 3-31 2-10 5-12 8-10 8-6 10-4z" fill="#5CB1CD"/>
<path transform="translate(931,1283)" d="m0 0 10 1 42 13 30 7 26 4 27 2h39l30-4 15-3h6l-3 2-25 7-34 7-38 5-16 1h-39l-24-3-20-5-16-7-12-7-6-5-2-4 1-5 4-4z" fill="#DBF2FC"/>
<path transform="translate(1010,721)" d="m0 0h34l27 3 17 4 16 6 14 8 8 7 1 7-4 5-4 2h-7l-21-6-30-9-26-6-26-4-21-2h-42l-31 4-16 3h-6l3-2 26-7 32-6 23-4z" fill="#DBF2FC"/>
<path transform="translate(869,492)" d="m0 0 21 1 15 3 16 8 6 5 2 4-1 4-3 2h-11l-33-7-26-3h-15l-26 3-22 5-36 10-3-1 15-7 25-10 29-9 21-5 12-2z" fill="#DBF2FC"/>
<path transform="translate(1290,1520)" d="m0 0 2 1-16 8-20 8-28 9-22 5-20 3h-23l-18-4-15-6-10-9-1-5 3-2h13l26 6 24 3h29l17-2 24-5z" fill="#DBF2FC"/>
<path transform="translate(902,592)" d="m0 0h33l31 4 16 5 17 9 8 6 2 3v5l-5 4-10-2-29-11-25-8-21-5-20-2-25-1-27 1v-1l31-5z" fill="#DBF2FC"/>
<path transform="translate(1043,1419)" d="m0 0h8l20 8 25 9 19 5 14 3 26 3h40v1l-14 3-16 2-29 1h-21l-22-2-15-3-15-5-11-6-11-8-2-3 1-6z" fill="#DBF2FC"/>
<path transform="translate(1416,1530)" d="m0 0 1 3-3 27-5 14-8 10-11 7-3 1h-10l1-4 14-10 8-8 5-8 7-20z" fill="#DBF2FC"/>
<path transform="translate(474,542)" d="m0 0h8l10 3 4 4-1 5-4 1-8-1h-14l-9 2-11 7-6 9-3 3 1-7 5-9 7-8 10-6z" fill="#DBF2FC"/>
<path transform="translate(667,453)" d="m0 0 4 1-2 5-16 12-7 9-6 12-6 20h-1v-17l3-15 6-12 8-8 12-6z" fill="#DBF2FC"/>
<path transform="translate(1609,1470)" d="m0 0 1 2-7 14-5 6-12 9-8 3h-15l-9-4-2-5 3-3 9 1h12l12-3 10-6 8-10z" fill="#DBF2FC"/>
<path transform="translate(604,1349)" d="m0 0h2l7 15-1 3-3-4-5-12z" fill="#5CB1CD"/>
<path transform="translate(621,1385)" d="m0 0h2l7 12-2 3-7-13z" fill="#5AAEC9"/>
</svg>
