<?xml version="1.0" encoding="UTF-8"?>
<svg version="1.1" viewBox="0 0 2048 2048" width="1280" height="1280" xmlns="http://www.w3.org/2000/svg">
<path transform="translate(0)" d="m0 0h2048v2048h-2048z" fill="#5CB1CE"/>
<path transform="translate(1311,520)" d="m0 0 6 2 20 13 15 10 14 10 13 10 22 18 12 11 8 7 26 26 7 8 13 15 11 14 12 16 16 23 13 21 15 27 8 16 11 23 10 25 13 38 9 34 7 34 5 37 3 41v42l-3 40-5 37-6 31-9 30-9 22-10 21-13 22-13 19-9 12-9 11-9 10-10 10-7 8-16 15-14 12-11 9-18 14-16 11-19 12-21 12-23 12-16 8-29 12-28 10-25 8-28 7-27 5-28 4-12 1h-60l-21-2-18-4-16-7-10-8-8-9-6-13-2-8v-12l3-10 5-10 7-7 13-9 14-6 14-3 8-1h26l20 3 47 11 27 4 14 1h10l19-2 25-6 18-6 19-9 14-10 6-5 7-10 2-5v-11l-4-7-10-6-10-3-7-1h-31l-27 4-30 7-43 12-37 9-36 7-39 6-23 2h-44l-19-2-23-5-15-6-14-8-14-12-11-13-9-16-5-15-1-4v-24l4-13 5-9 9-10 8-7 16-8 13-4 12-2h28l27 3 36 7 45 10 37 7 25 3 17 1h21l18-2 33-7 24-7 19-7 26-12 19-10 15-10 17-12 16-13 12-11 19-19 11-14 10-13 11-17 13-22 11-24 9-24 7-24 5-24 4-37 1-30-1-29-3-29-6-33-8-32-12-36-12-29-11-23-13-23-14-23-12-17-14-18-13-15-19-19-11-9-16-13-9-7z" fill="#FEFEFE"/>
<path transform="translate(903,580)" d="m0 0h47l28 3 16 4 13 7 11 9 9 13 4 10 1 13-3 13-7 12-8 8-11 7-13 5-18 4-7 1h-23l-30-5-37-9-24-4h-34l-22 3-21 6-21 8-14 8-14 11-7 8-4 8-1 7 3 9 7 6 12 5 11 2h21l27-3 21-4 66-18 29-7 45-9 28-4 21-2 19-1h34l17 2 19 4 16 6 13 7 12 9 10 9 9 12 8 15 5 17 1 14-1 11-4 12-6 11-11 12-11 7-11 5-14 4-15 2-22-1-26-3-36-7-63-14-24-4-33-3h-24l-23 3-29 6-25 7-28 11-29 14-18 11-16 11-16 12-11 10-8 7-16 17-9 11-11 13-14 21-9 16-10 19-11 27-8 25-6 26-4 25-2 22v49l3 31 5 29 7 31 11 35 11 28 13 28 11 21 14 23 11 16 12 16 13 16 11 12 13 14 22 18 19 13 4 3v2l-6-2-20-12-34-24-26-20-11-10-8-7-20-18-11-11-7-8-10-11-11-14-9-11-15-20-18-27-12-20-12-21-13-26-14-33-10-28-8-27-7-28-6-31-4-29-3-37v-57l3-35 5-36 7-34 5-19 8-21 9-20 9-17 14-22 12-17 13-16 11-12 15-16 10-10 8-7 15-13 14-11 16-12 18-12 26-16 27-14 19-10 31-13 44-15 25-7 36-7 28-4z" fill="#FEFEFE"/>
<path transform="translate(716,914)" d="m0 0 1 2-15 26-9 19-8 24-4 19-2 23 1 23 3 19 5 20 7 20 14 29 13 22 14 20 10 13 9 11 12 14 14 15 9 10 12 12 8 7 9 9 8 7 8 8 8 7 13 11 15 13 14 11 11 9 12 11 10 10 11 14 11 16 8 14 11 23 7 22 4 20 2 16v16l-3 20-5 16-7 14-7 9-10 10-14 8-13 5-13 2-16-1-30-7-36-12-18-8-25-13-18-11-20-14-14-11-14-12-8-7-17-17-9-11-13-16-13-18-10-16-11-19-9-16-11-25-8-22-9-30-6-24-6-37-2-22-1-28 1-23 3-27 4-22 6-25 10-30 10-23 12-23 12-19 13-17 9-11 14-15 13-12 11-9 13-10z" fill="#345773"/>
<path transform="translate(1143,464)" d="m0 0h19l24 5 26 8 25 10 29 14 18 10 21 14 16 12 13 11 15 14 7 7 7 8 11 12 7 9 12 16 12 18 11 18 14 27 7 15 10 26 8 25 7 28 6 36 3 33v33l-3 34-6 33-7 26-8 23-9 20-13 25-14 21-9 12-9 11-11 12-14 14-8 7-12 10-15 10h-2l2-5 8-14 11-21 8-21 5-19 3-20v-29l-3-22-6-25-9-24-8-17-16-27-8-12-12-16-10-13-13-15-11-12-7-8-34-34-8-7-14-13-11-9-12-11-11-9-13-11-14-11-20-20-11-14-12-18-12-23-9-24-4-15-4-24v-22l3-20 5-16 7-14 9-11 9-8 14-8 14-4z" fill="#345773"/>
<path transform="translate(873,481)" d="m0 0h12l14 2 14 5 12 7 10 9 6 9 2 7v8l-3 10-6 8-10 8-15 7-17 5-22 4-48 6-29 6-22 6-26 9-34 14-22 11-23 13-21 13-23 16-14 11-16 13-10 9-11 9-8 8-7 8-9 9-9 11-10 12-15 20-15 23-10 16-2 1 3-9 10-22 21-42 16-27 12-18 12-17 11-14 13-16 9-10 7-8 9-10 17-17 8-7 12-11 14-11 16-13 19-13 13-9 21-13 21-12 21-10 30-11 22-6 29-5z" fill="#FEFEFE"/>
<path transform="translate(1560,1233)" d="m0 0 1 3-7 17-27 54-16 27-16 24-12 16-8 10-11 13-10 11-7 8-9 10-14 14-8 7-11 10-11 9-17 14-36 26-23 14-17 10-30 14-28 10-25 6-25 4-10 1h-23l-16-3-13-5-10-6-8-7-6-10-2-5v-14l6-12 9-8 15-8 18-6 14-3 56-7 26-5 29-8 30-10 29-12 24-12 22-13 21-13 12-8 16-12 14-11 14-12 10-9 8-8 5-4 7-8 11-11 9-11 8-9 10-13 12-17 11-18 8-13z" fill="#FEFEFE"/>
<path transform="translate(1603,1035)" d="m0 0 2 1 1 26v25l-2 38-4 40-7 46-8 51-4 37-1 14v40l3 20 6 20 10 21 12 21 4 12 1 6v14l-4 15-6 10-9 10-9 6-10 3h-15l-13-5-11-8-8-8-9-13-9-16-7-19-3-14-1-8v-9l3-21 7-21 16-34 19-44 15-40 8-24 11-39 9-40 6-35 4-34z" fill="#FEFEFE"/>
<path transform="translate(467,536)" d="m0 0h19l9 3 13 9 12 12 10 15 9 19 5 18 2 15v11l-3 19-7 20-17 36-15 34-16 42-9 27-13 46-6 26-8 45-5 45-2 30-2 2-1-15v-40l3-47 4-35 7-45 7-44 4-37 1-15v-37l-3-21-5-18-9-20-13-23-4-9-2-8v-18l3-12 5-10 12-13 12-6z" fill="#FEFEFE"/>
<path transform="translate(1477,1398)" d="m0 0v3l-15 26-12 23-11 23-9 24-5 21-4 38-4 16-5 9-9 10-14 7-5 1h-11l-12-3-9-6-6-10-1-4v-13l4-14 5-10 12-17 12-14 11-12 32-32 7-8 14-15 10-12 22-28z" fill="#FEFEFE"/>
<path transform="translate(665,448)" d="m0 0h13l10 3 10 8 5 10v16l-5 15-9 16-11 14-22 24-9 9-8 7-14 15-9 9-7 8-13 15-9 11-13 17-3 4-2-1 8-14 9-15 12-22 10-21 10-26 5-21 5-44 4-13 7-10 10-9 10-4z" fill="#FEFEFE"/>
<path transform="translate(930,1283)" d="m0 0 10 1 51 15 28 6 22 3 33 2h26l34-4 21-4 4 1-22 7-40 9-36 5-30 2h-15l-27-2-21-4-16-5-12-5-12-8-7-8v-5l5-4z" fill="#5DB2CF"/>
<path transform="translate(1e3 721)" d="m0 0h41l31 4 20 6 16 8 11 8 3 4-1 7-5 4-8 1-31-9-23-7-34-7-26-3-17-1h-26l-27 2-29 5-11 1 3-2 44-11 33-6z" fill="#5DB2CF"/>
<path transform="translate(865,492)" d="m0 0h17l15 2 13 4 11 6 6 5 2 5-2 4-2 1h-9l-35-7-15-2h-35l-27 4-24 6-25 7-2-1 12-6 24-10 25-8 29-7 11-2z" fill="#5DB2CF"/>
<path transform="translate(1291,1520)" d="m0 0 4 1-28 12-28 10-26 7-25 4h-28l-16-4-12-5-8-6-5-6 1-4 4-2h8l29 7 15 2 14 1h17l23-2 24-5z" fill="#5DB2CF"/>
<path transform="translate(1044,1418)" d="m0 0 11 2 24 10 24 8 27 6 17 2 16 1h13l26-1-4 2-21 4-15 2-31 1-24-1-21-3-15-4-12-5-10-6-10-9-1-3 4-5z" fill="#5DB2CF"/>
<path transform="translate(892,592)" d="m0 0h47l28 4 18 6 13 7 10 8 2 4-1 4-4 3-7-1-47-17-27-7-12-2-13-1h-55v-1l38-6z" fill="#5DB2CF"/>
<path transform="translate(665,453)" d="m0 0h5l1 4-7 6-12 9-8 11-5 12-5 18-2 1 1-20 3-14 4-10 9-10 8-5z" fill="#5DB2CF"/>
<path transform="translate(473,542)" d="m0 0h10l9 3 4 3v5l-1 1-29 1-10 3-8 6-8 12-1-4 6-12 8-9 9-6z" fill="#5DB2CF"/>
<path transform="translate(1415,1529)" d="m0 0h2l-2 23-3 14-4 10-9 10-8 5-3 1h-11v-3l14-11 7-6 7-11 5-13z" fill="#5DB2CF"/>
<path transform="translate(1608,1470)" d="m0 0 1 3-4 10-8 10-9 7-10 4h-15l-8-4-3-3 1-4 6-1 13 1 15-3 11-6 8-11z" fill="#5DB2CF"/>
<path transform="translate(458,896)" d="m0 0h1l-1 9-3 18 1 10-3 17-1-4-1 4h-1v-10l7-42z" fill="#5DB2CF"/>
<path transform="translate(460,894)" d="m0 0h2l-2 12-2 15-1 6h-2l-1 4v-8l5-27z" fill="#3D6B87"/>
<path transform="translate(1044,1194)" d="m0 0 10 1 30 7v1h-9l-31-7z" fill="#457D9A"/>
<path transform="translate(1534,1259)" d="m0 0h2v2h-2l-1 4-4 5-1 3h-2l-2 4-4 6-4 5h-2l1-4 11-14z" fill="#417591"/>
</svg>
