<svg version="1.1" viewBox="0 0 2048 2048" width="24" height="24" xmlns="http://www.w3.org/2000/svg"><path transform="translate(1309,519)" d="m0 0 6 2 24 15 22 15 13 10 17 14 13 11 10 9 3 2v2l4 2 21 21 7 8 10 11 9 11 13 16 12 17 14 20 17 28 14 26 13 27 13 32 12 36 8 29 7 33 4 26 3 26 2 35v31l-2 35-4 34-6 35-6 25-7 21-11 25-10 20-13 21-13 18-11 14-11 13-11 11-7 8-10 10-11 9-11 10-17 13-20 15-24 15-17 10-26 14-25 12-27 11-38 13-34 9-44 8-27 3-20 1h-21l-33-2-22-4-15-6-10-7-7-6-7-10-4-8-2-8v-13l4-13 7-10 8-7 11-7 12-5 14-3 9-1h23l22 3 46 11 28 4 13 1h11l25-3 27-7 24-10 16-10 12-11 5-9 1-2v-12l-3-6-6-5-10-4-11-2-21-1-21 2-28 5-27 7-36 10-46 11-45 8-30 4-11 1h-48l-27-4-19-5-16-8-9-6-10-9-9-9-7-10-8-16-4-14-1-7v-10l3-15 7-14 11-12 11-8 11-5 13-4 11-2h31l31 4 73 16 37 7 26 3 16 1h25l26-4 27-6 21-6 21-8 33-16 12-7 18-12 18-13 10-9 8-7 22-22 11-14 10-13 12-18 11-19 13-28 8-21 8-28 5-26 3-31 1-20v-21l-2-30-3-24-7-36-8-30-11-32-12-28-12-25-14-24-11-18-12-17-14-18-12-13-7-8-13-13-11-9-13-11-14-10z" fill="#58AFCC" /><path transform="translate(920,579)" d="m0 0h17l27 2 20 3 12 4 11 6 10 9 7 8 5 10 2 6v18l-4 11-7 10-9 8-16 8-17 5-14 2h-20l-32-5-36-9-16-3-9-1h-36l-21 3-24 7-21 9-12 7-10 8-7 7-6 11v12l4 7 8 5 9 3 16 2h12l31-3 20-4 49-13 33-9 51-11 25-4 43-4h45l26 4 16 5 12 5 15 10 10 9 8 8 9 14 7 15 3 12 1 12-2 15-5 13-9 13-9 8-12 7-15 5-13 3h-27l-21-2-24-4-93-20-31-4-17-1h-23l-25 3-33 7-20 6-25 10-20 9-19 10-25 17-16 12-11 10-8 7-11 11-7 8-12 14-14 19-13 21-14 27-11 27-9 29-6 31-3 24-1 12v48l3 31 6 36 8 32 12 36 11 27 10 22 12 22 12 20 14 20 13 17 9 11 11 12 23 23 14 11 13 9 8 6-3 1-23-14-23-16-18-13-14-11-14-12-13-12-8-7-28-28-9-11-8-9-26-34-16-24-13-21-16-29-14-29-14-35-10-30-9-33-7-34-4-27-3-30-1-16v-54l4-44 5-33 7-34 5-17 9-24 10-21 11-19 12-18 8-11 11-14 11-13 8-8 1-2h2l2-4 15-15 8-7 14-12 34-26 17-11 21-13 22-12 25-13 36-15 41-14 25-7 41-8 30-4 12-1z" fill="#58AFCC" /><path transform="translate(716,914)" d="m0 0 2 1-10 15-12 23-8 21-5 18-3 17-1 12v20l3 24 5 22 7 20 11 24 10 18 13 20 13 18 11 14 9 10 7 8 9 10 11 12 20 20 8 7 9 9 8 7 12 11 11 9 10 9 14 11 16 13 13 12 7 7 11 14 11 15 10 17 9 19 6 17 5 19 3 19v29l-3 17-5 15-8 15-11 12-8 7-16 7-16 4h-16l-18-3-26-7-28-10-20-9-21-11-19-12-17-12-13-10-13-11-10-9-19-19-18-22-14-19-13-20-12-21-11-21-12-29-11-33-8-33-5-29-3-33v-40l3-32 5-28 7-27 8-23 10-23 11-21 11-17 10-14 11-14 14-15 13-13 11-9 15-12z" fill="#335671" /><path transform="translate(1147,464)" d="m0 0h13l17 3 26 7 20 7 25 11 26 13 19 12 17 12 13 10 10 9 8 7 24 24 9 11 13 16 10 14 11 17 12 21 10 19 12 28 8 22 8 28 7 34 4 29 1 13v53l-3 27-5 28-7 26-8 23-10 23-12 23-16 24-10 13-10 11-7 8-10 10-8 7-14 12-14 10-4 3-2-1 12-20 9-17 8-21 5-17 3-16 1-9v-32l-3-21-6-24-10-25-9-19-13-22-13-19-12-16-9-11-13-15-24-26-13-13-8-7-11-11-8-7-11-10-11-9-11-10-11-9-17-14-11-9-12-12-7-8-10-13-12-19-10-19-9-24-5-21-3-22v-18l3-20 6-18 9-16 11-12 14-9 10-4 9-2z" fill="#335671" /><path transform="translate(870,481)" d="m0 0h19l15 3 14 6 10 7 9 9 5 10 1 3v10l-4 10-7 8-7 6-17 8-17 5-23 4-46 6-26 5-26 7-31 11-26 11-23 11-23 13-18 11-16 11-15 11-14 11-14 12-11 9-7 7-8 7-9 10-8 8-9 11-9 10-14 19-12 18-11 18-6 11-1-3 13-29 16-33 11-21 14-23 16-23 12-16 13-16 9-11 12-13 7-8 17-17 8-7 10-9 8-7 14-11 17-13 23-16 24-15 16-9 21-11 28-11 20-6 29-6z" fill="#58AFCC" /><path transform="translate(1561,1230)" d="m0 0 1 3-22 48-11 22-12 21-11 18-12 17-8 11-11 14-9 11-13 14-7 8-30 30-8 7-10 9-14 11-18 14-17 12-15 10-21 13-20 11-20 9-27 10-24 6-30 5-11 1h-20l-15-2-13-5-9-5-9-7-7-10-4-11 1-10 5-10 4-5 13-9 11-5 15-5 21-4 51-6 28-6 32-9 26-9 26-11 26-13 27-16 22-14 18-13 16-13 11-9 24-22 9-9 7-8 12-13 9-11 10-13 12-17 11-17z" fill="#58AFCC" /><path transform="translate(473,535)" d="m0 0 14 1 10 4 11 8 11 11 9 13 8 16 6 16 3 14 1 18-2 16-6 20-11 24-17 37-14 34-15 42-11 37-9 36-8 43-4 30-3 35-1 27-2-1-1-19v-51l2-32 4-36 11-69 5-34 3-30 1-16v-33l-3-23-5-17-9-20-13-23-5-12-1-5v-19l4-13 6-11 11-11 10-5z" fill="#58AFCC" /><path transform="translate(1604,1024)" d="m0 0h1l1 41v23l-2 40-4 37-6 40-9 57-4 35-1 17v36l2 19 5 19 9 21 12 21 5 10 3 12v16l-3 12-7 13-7 8-11 7-11 3h-13l-11-4-10-6-9-8-9-11-10-17-7-16-5-20-1-11v-10l2-14 5-17 11-25 14-30 15-36 14-38 8-24 11-41 7-30 7-40 4-36 3-46z" fill="#58AFCC" /><path transform="translate(1482,1390)" d="m0 0 1 2-13 21-12 21-10 19-13 29-8 26-3 18-3 30-4 16-5 10-4 5-10 7-10 4-4 1h-13l-10-3-8-6-6-8-2-6v-14l5-15 8-14 10-13 9-11 16-17 29-29 7-8 13-14 9-11 14-17 15-20z" fill="#58AFCC" /><path transform="translate(664,448)" d="m0 0h16l10 4 6 5 6 10 1 4v13l-5 16-9 16-13 16-7 8-12 13-7 7h-2l-1 3h-2v2l-8 7-8 8-1 2h-2l-2 4-10 10-9 11-9 10-9 11-13 17-5 5 2-5 9-15 14-26 9-17 11-26 6-18 4-22 3-31 3-12 4-9 6-8 9-8 10-4z" fill="#58AFCC" /><path transform="translate(932,1283)" d="m0 0 9 1 42 13 25 6 30 5 27 2h38l32-4 11-2h5l-2 2-21 6-28 6-26 4-31 3h-42l-24-3-20-5-16-7-11-6-8-7-1-6 2-4 5-3z" fill="#D7F0FD" /><path transform="translate(1014,721)" d="m0 0h31l26 3 21 5 16 7 14 9 5 6-1 7-5 4-2 1h-8l-42-13-28-7-23-4-31-3h-37l-28 3-19 3h-5l2-2 27-7 31-6 29-4z" fill="#D7F0FD" /><path transform="translate(868,492)" d="m0 0h14l16 2 12 4 11 6 7 6 1 6-5 3h-9l-33-7-23-3h-21l-23 3-19 4-30 8-8 1 3-3 16-7 28-10 28-8 21-4z" fill="#D7F0FD" /><path transform="translate(1284,1522)" d="m0 0 4 1-12 6-31 12-24 7-26 5-8 1h-25l-18-4-14-6-9-7-2-6 3-3 9-1 24 6 29 4h29l24-3 25-6z" fill="#D7F0FD" /><path transform="translate(902,592)" d="m0 0h34l31 4 15 5 16 8 9 7 3 4-2 5-3 3-8-1-37-14-20-6-22-5-15-2-28-1h-20l4-2 19-3z" fill="#D7F0FD" /><path transform="translate(1045,1418)" d="m0 0 9 2 30 12 18 6 23 5 19 3 12 1h31l3 2-16 3-18 2h-42l-21-2-18-4-18-7-10-6-7-6-1-6 3-4z" fill="#D7F0FD" /><path transform="translate(473,542)" d="m0 0h10l9 3 4 4-1 4-1 1h-24l-9 2-10 6-8 9-3 5h-1l1-7 7-12 7-7 9-5z" fill="#D7F0FD" /><path transform="translate(665,453)" d="m0 0 5 1v4l-9 7-10 8-7 10-5 12-5 15h-1v-16l4-18 6-10 9-8 9-4z" fill="#D7F0FD" /><path transform="translate(1414,1538)" d="m0 0h1v14l-3 14-4 9-6 8-8 6-6 3h-10v-4l14-10 7-7 8-14 6-18z" fill="#D7F0FD" /><path transform="translate(1608,1470)" d="m0 0 1 4-6 12-9 10-9 5-10 3h-10l-10-4-3-5 3-3 11 1h10l12-3 8-5 8-8z" fill="#D7F0FD" /><path transform="translate(1594,1489)" d="m0 0 3 1-4 4-9 4h-3v-2l12-6z" fill="#FDFDFD" /><path transform="translate(564,656)" d="m0 0v3z" fill="#58AFCC" /><path transform="translate(566,653)" d="m0 0v3z" fill="#58AFCC" /><path transform="translate(568,650)" d="m0 0v3z" fill="#58AFCC" /><path transform="translate(1484,1387)" d="m0 0" fill="#58AFCC" /><path transform="translate(1562,1228)" d="m0 0" fill="#58AFCC" /><path transform="translate(484,818)" d="m0 0" fill="#58AFCC" /><path transform="translate(562,659)" d="m0 0" fill="#58AFCC" /><path transform="translate(1307,518)" d="m0 0 2 1z" fill="#58AFCC" /><path transform="translate(742,1529)" d="m0 0" fill="#58AFCC" /><path transform="translate(1483,1389)" d="m0 0" fill="#58AFCC" /><path transform="translate(1485,1386)" d="m0 0" fill="#58AFCC" /><path transform="translate(561,661)" d="m0 0" fill="#58AFCC" /></svg>