<?xml version="1.0" encoding="UTF-8"?>
<svg version="1.1" viewBox="0 0 2048 2048" width="1280" height="1280" xmlns="http://www.w3.org/2000/svg">
<path transform="translate(1309,519)" d="m0 0 6 2 24 15 22 15 13 10 17 14 13 11 10 9 3 2v2l4 2 21 21 7 8 10 11 9 11 13 16 12 17 14 20 17 28 14 26 13 27 13 32 12 36 8 29 7 33 4 26 3 26 2 35v31l-2 35-4 34-6 35-6 25-7 21-11 25-10 20-13 21-13 18-11 14-11 13-11 11-7 8-10 10-11 9-11 10-17 13-20 15-24 15-17 10-26 14-25 12-27 11-38 13-34 9-44 8-27 3-20 1h-21l-33-2-22-4-15-6-10-7-7-6-7-10-4-8-2-8v-13l4-13 7-10 8-7 11-7 12-5 14-3 9-1h23l22 3 46 11 28 4 13 1h11l25-3 27-7 24-10 16-10 12-11 5-9 1-2v-12l-3-6-6-5-10-4-11-2-21-1-21 2-28 5-27 7-36 10-46 11-45 8-30 4-11 1h-48l-27-4-19-5-16-8-9-6-10-9-9-9-7-10-8-16-4-14-1-7v-10l3-15 7-14 11-12 11-8 11-5 13-4 11-2h31l31 4 73 16 37 7 26 3 16 1h25l26-4 27-6 21-6 21-8 33-16 12-7 18-12 18-13 10-9 8-7 22-22 11-14 10-13 12-18 11-19 13-28 8-21 8-28 5-26 3-31 1-20v-21l-2-30-3-24-7-36-8-30-11-32-12-28-12-25-14-24-11-18-12-17-14-18-12-13-7-8-13-13-11-9-13-11-14-10z" fill="#FEFEFE"/>
<path transform="translate(920,579)" d="m0 0h17l27 2 20 3 12 4 11 6 10 9 7 8 5 10 2 6v18l-4 11-7 10-9 8-16 8-17 5-14 2h-20l-32-5-36-9-16-3-9-1h-36l-21 3-24 7-21 9-12 7-10 8-7 7-6 11v12l4 7 8 5 9 3 16 2h12l31-3 20-4 49-13 33-9 51-11 25-4 43-4h45l26 4 16 5 12 5 15 10 10 9 8 8 9 14 7 15 3 12 1 12-2 15-5 13-9 13-9 8-12 7-15 5-13 3h-27l-21-2-24-4-93-20-31-4-17-1h-23l-25 3-33 7-20 6-25 10-20 9-19 10-25 17-16 12-11 10-8 7-11 11-7 8-12 14-14 19-13 21-14 27-11 27-9 29-6 31-3 24-1 12v48l3 31 6 36 8 32 12 36 11 27 10 22 12 22 12 20 14 20 13 17 9 11 11 12 23 23 14 11 13 9 8 6-3 1-23-14-23-16-18-13-14-11-14-12-13-12-8-7-28-28-9-11-8-9-26-34-16-24-13-21-16-29-14-29-14-35-10-30-9-33-7-34-4-27-3-30-1-16v-54l4-44 5-33 7-34 5-17 9-24 10-21 11-19 12-18 8-11 11-14 11-13 8-8 1-2h2l2-4 15-15 8-7 14-12 34-26 17-11 21-13 22-12 25-13 36-15 41-14 25-7 41-8 30-4 12-1z" fill="#FDFDFD"/>
<path transform="translate(716,914)" d="m0 0 2 1-10 15-12 23-8 21-5 18-3 17-1 12v20l3 24 5 22 7 20 11 24 10 18 13 20 13 18 11 14 9 10 7 8 9 10 11 12 20 20 8 7 9 9 8 7 12 11 11 9 10 9 14 11 16 13 13 12 7 7 11 14 11 15 10 17 9 19 6 17 5 19 3 19v29l-3 17-5 15-8 15-11 12-8 7-16 7-16 4h-16l-18-3-26-7-28-10-20-9-21-11-19-12-17-12-13-10-13-11-10-9-19-19-18-22-14-19-13-20-12-21-11-21-12-29-11-33-8-33-5-29-3-33v-40l3-32 5-28 7-27 8-23 10-23 11-21 11-17 10-14 11-14 14-15 13-13 11-9 15-12z" fill="#325670"/>
<path transform="translate(1147,464)" d="m0 0h13l17 3 26 7 20 7 25 11 26 13 19 12 17 12 13 10 10 9 8 7 24 24 9 11 13 16 10 14 11 17 12 21 10 19 12 28 8 22 8 28 7 34 4 29 1 13v53l-3 27-5 28-7 26-8 23-10 23-12 23-16 24-10 13-10 11-7 8-10 10-8 7-14 12-14 10-4 3-2-1 12-20 9-17 8-21 5-17 3-16 1-9v-32l-3-21-6-24-10-25-9-19-13-22-13-19-12-16-9-11-13-15-24-26-13-13-8-7-11-11-8-7-11-10-11-9-11-10-11-9-17-14-11-9-12-12-7-8-10-13-12-19-10-19-9-24-5-21-3-22v-18l3-20 6-18 9-16 11-12 14-9 10-4 9-2z" fill="#325670"/>
<path transform="translate(870,481)" d="m0 0h19l15 3 14 6 10 7 9 9 5 10 1 3v10l-4 10-7 8-7 6-17 8-17 5-23 4-46 6-26 5-26 7-31 11-26 11-23 11-23 13-18 11-16 11-15 11-14 11-14 12-11 9-7 7-8 7-9 10-8 8-9 11-9 10-14 19-12 18-11 18-6 11-1-3 13-29 16-33 11-21 14-23 16-23 12-16 13-16 9-11 12-13 7-8 17-17 8-7 10-9 8-7 14-11 17-13 23-16 24-15 16-9 21-11 28-11 20-6 29-6z" fill="#FEFEFE"/>
<path transform="translate(1561,1230)" d="m0 0 1 3-22 48-11 22-12 21-11 18-12 17-8 11-11 14-9 11-13 14-7 8-30 30-8 7-10 9-14 11-18 14-17 12-15 10-21 13-20 11-20 9-27 10-24 6-30 5-11 1h-20l-15-2-13-5-9-5-9-7-7-10-4-11 1-10 5-10 4-5 13-9 11-5 15-5 21-4 51-6 28-6 32-9 26-9 26-11 26-13 27-16 22-14 18-13 16-13 11-9 24-22 9-9 7-8 12-13 9-11 10-13 12-17 11-17z" fill="#FEFEFE"/>
<path transform="translate(473,535)" d="m0 0 14 1 10 4 11 8 11 11 9 13 8 16 6 16 3 14 1 18-2 16-6 20-11 24-17 37-14 34-15 42-11 37-9 36-8 43-4 30-3 35-1 27-2-1-1-19v-51l2-32 4-36 11-69 5-34 3-30 1-16v-33l-3-23-5-17-9-20-13-23-5-12-1-5v-19l4-13 6-11 11-11 10-5z" fill="#FEFEFE"/>
<path transform="translate(1604,1024)" d="m0 0h1l1 41v23l-2 40-4 37-6 40-9 57-4 35-1 17v36l2 19 5 19 9 21 12 21 5 10 3 12v16l-3 12-7 13-7 8-11 7-11 3h-13l-11-4-10-6-9-8-9-11-10-17-7-16-5-20-1-11v-10l2-14 5-17 11-25 14-30 15-36 14-38 8-24 11-41 7-30 7-40 4-36 3-46z" fill="#FDFDFD"/>
<path transform="translate(1482,1390)" d="m0 0 1 2-13 21-12 21-10 19-13 29-8 26-3 18-3 30-4 16-5 10-4 5-10 7-10 4-4 1h-13l-10-3-8-6-6-8-2-6v-14l5-15 8-14 10-13 9-11 16-17 29-29 7-8 13-14 9-11 14-17 15-20z" fill="#FEFEFE"/>
<path transform="translate(664,448)" d="m0 0h16l10 4 6 5 6 10 1 4v13l-5 16-9 16-13 16-7 8-12 13-7 7h-2l-1 3h-2v2l-8 7-8 8-1 2h-2l-2 4-10 10-9 11-9 10-9 11-13 17-5 5 2-5 9-15 14-26 9-17 11-26 6-18 4-22 3-31 3-12 4-9 6-8 9-8 10-4z" fill="#FEFEFE"/>
<path transform="translate(929,1284)" d="m0 0h10l46 14 26 6 32 5 36 2h18l30-3 11-1-2 2-28 7-31 5-26 3-15 1h-27l-23-2-20-4-18-6-17-9-8-7-1-2v-6l5-4z" fill="#3F6782"/>
<path transform="translate(1024,721)" d="m0 0h16l28 3 15 3 15 5 17 9 9 7 3 5-2 5-5 4-4 1-16-4-32-10-24-6-27-5-15-2-16-1h-41l-22 3h-6l2-2 15-4 34-6 24-3z" fill="#3F6782"/>
<path transform="translate(1282,1523)" d="m0 0 4 1-11 5-23 9-27 8-26 6-17 2h-14l-19-3-13-5-9-5-6-5-1-6 3-2h11l24 6 22 3h39l25-4z" fill="#3F6782"/>
<path transform="translate(858,493)" d="m0 0h28l16 3 12 5 8 5 5 5 1 4-3 3h-11l-34-7-16-2h-33l-26 4-35 9-7 1 4-3 27-11 22-7 29-7z" fill="#3F6782"/>
<path transform="translate(1043,1419)" d="m0 0h7l20 8 24 9 22 6 23 4 38 3-2 2-5 1-17 1h-49l-20-3-20-6-13-7-9-7-3-4 2-6z" fill="#3F6782"/>
<path transform="translate(894,593)" d="m0 0h45l25 3 16 5 16 8 8 6 5 5-1 4-3 3-9-1-40-15-20-6-24-5-18-2-22-1v-1l11-2z" fill="#3F6782"/>
<path transform="translate(472,543)" d="m0 0h11l9 3 3 3v4l-29 1-11 4-10 9-3 3 1-5 6-9 3-1v-2l10-7z" fill="#3F6782"/>
<path transform="translate(1414,1536)" d="m0 0h1l-1 16-3 15-6 12-7 7-10 5-3 1h-7v-3l17-13 6-7 6-10z" fill="#3F6782"/>
<path transform="translate(663,454)" d="m0 0h7l-1 4-13 10-6 5-7 10-6 16-2 7h-1v-14l3-13 5-10 6-7 9-6z" fill="#3F6782"/>
<path transform="translate(1606,1474)" d="m0 0 1 3-5 9-5 6-8 6-12 5h-14l-7-3-2-2v-5h24l13-4 9-6z" fill="#3F6782"/>
<path transform="translate(564,656)" d="m0 0v3z" fill="#FEFEFE"/>
<path transform="translate(566,653)" d="m0 0v3z" fill="#FEFEFE"/>
<path transform="translate(568,650)" d="m0 0v3z" fill="#FEFEFE"/>
<path transform="translate(1484,1387)" d="m0 0" fill="#FEFEFE"/>
<path transform="translate(1562,1228)" d="m0 0" fill="#FEFEFE"/>
<path transform="translate(484,818)" d="m0 0" fill="#FEFEFE"/>
<path transform="translate(562,659)" d="m0 0" fill="#FEFEFE"/>
<path transform="translate(1307,518)" d="m0 0 2 1z" fill="#FEFEFE"/>
<path transform="translate(742,1529)" d="m0 0" fill="#FEFEFE"/>
<path transform="translate(1483,1389)" d="m0 0" fill="#FEFEFE"/>
<path transform="translate(1485,1386)" d="m0 0" fill="#FEFEFE"/>
<path transform="translate(561,661)" d="m0 0" fill="#FEFEFE"/>
</svg>
