<?xml version="1.0" encoding="UTF-8"?>
<svg version="1.1" viewBox="0 0 2048 2048" width="1280" height="1280" xmlns="http://www.w3.org/2000/svg">
<path transform="translate(0)" d="m0 0h2048v2048h-2048z" fill="#17140D"/>
<path transform="translate(1317,524)" d="m0 0 5 2 18 11 19 13 12 9 11 9 17 14 10 9 8 7 31 31 7 8 13 15 12 15 14 20 12 17 13 21 10 18 14 27 12 26 13 34 9 28 9 35 6 30 5 37 2 26 1 26v17l-2 39-4 34-7 40-7 27-9 24-14 30-10 17-14 21-10 13-13 16-14 15-20 20-8 7-14 12-15 12-18 13-17 11-21 13-24 13-21 11-36 15-44 15-31 8-38 7-33 4h-53l-18-1-23-4-16-6-11-8-9-9-7-12-2-7v-19l4-11 6-8 10-9 14-8 13-4 11-2h36l23 4 36 9 24 4 8 1h29l24-4 25-7 18-8 13-7 15-12 7-11 2-6v-7l-4-8-6-5-9-4-10-2-11-1h-15l-26 3-34 7-42 12-45 11-36 7-32 5-32 3h-34l-22-2-25-5-16-6-15-9-10-9-9-9-9-13-7-14-4-16v-20l5-16 6-10 10-11 11-7 11-5 19-5 7-1h24l31 4 35 7 35 8 42 8 34 4 25 1 21-2 36-7 25-7 17-6 24-11 25-13 25-17 17-13 12-11 8-7 14-14 11-14 9-11 11-16 13-22 8-16 9-20 8-22 7-26 4-20 4-40v-43l-3-34-6-36-9-36-12-36-11-26-14-29-14-25-12-19-10-14-10-13-9-11-12-13-9-10-8-7-15-13-9-7z" fill="#5BB1CE"/>
<path transform="translate(910,580)" d="m0 0h36l31 3 16 4 12 6 10 8 8 9 6 12 2 8v13l-4 13-6 8-9 9-12 7-19 6-10 2-12 1h-12l-28-4-51-12-13-2-15-1h-15l-27 3-19 5-20 7-16 8-12 8-7 6-8 11-3 7v8l4 8 9 6 11 4 6 1h28l26-3 27-6 66-18 40-9 26-5 20-3 31-3 20-1h26l20 2 19 4 16 6 12 6 16 12 10 10 10 15 6 14 4 15v19l-3 11-7 14-9 10-8 7-17 8-15 4-5 1h-23l-24-2-29-5-55-12-33-7-29-4-13-1h-32l-23 3-29 6-21 6-19 7-25 11-23 12-24 16-17 13-14 12-10 9-7 8-10 11-9 11-10 13-10 15-14 25-10 21-10 27-7 24-5 25-3 23-2 36 1 34 3 27 5 31 8 32 10 32 11 28 14 30 11 21 13 21 14 20 10 13 9 11 9 10 12 13 11 11 8 7 16 12 15 10-2 1-14-8-15-10-23-16-14-10-10-8-14-12-8-7-20-18-22-22-9-11-9-10-10-13-14-18-16-24-12-19-12-21-12-23-10-21-11-27-11-31-8-29-6-25-6-33-4-33-2-35v-36l3-42 4-30 5-27 7-31 9-25 17-35 12-20 13-18 11-14 11-13 11-12 20-20 8-7 14-12 14-11 20-15 19-12 18-11 18-10 19-10 17-8 29-12 38-13 29-8 36-7 27-4z" fill="#5BB1CE"/>
<path transform="translate(713,917)" d="m0 0 2 1-13 22-11 24-5 15-5 23-2 15v28l4 27 5 19 9 24 8 17 13 23 13 19 13 18 11 13 9 11 8 8 7 8 4 4v2l4 2 7 8 16 15 10 10 8 7 13 12 11 9 13 12 28 22 11 10 6 5 7 8 11 14 10 14 12 21 10 23 6 19 3 14 2 17v22l-3 19-6 17-6 12-9 11-9 8-9 5-12 5-6 2-7 1h-15l-22-4-22-6-23-8-24-10-23-12-22-14-22-16-14-12-8-7-10-9-9-9-9-11-10-11-10-13-12-17-12-19-12-21-11-22-11-27-9-28-7-27-5-26-4-33-1-20v-22l2-29 4-26 6-29 12-36 7-17 10-20 12-20 13-18 9-11 18-20 12-11 13-11 15-11z" fill="#335772"/>
<path transform="translate(1141,465)" d="m0 0h24l26 6 25 8 22 9 29 14 16 9 21 14 14 11 16 13 16 15 15 16 1 3h2l22 28 12 17 13 22 12 22 8 17 11 27 9 28 7 30 5 31 3 36v34l-2 26-4 26-6 27-7 23-12 29-10 20-13 21-13 18-8 10-11 12-19 19-11 9-17 13h-2l1-4 7-14 8-15 10-26 5-21 3-22v-19l-3-24-5-23-9-26-10-21-11-19-14-21-13-18-9-11-11-13-13-14-7-8-25-25-2-1v-2l-4-2-11-11-8-7-13-12-11-9-15-13-11-9-16-13-12-11-7-8-10-12-11-16-10-18-7-15-7-20-5-21-2-14v-29l3-17 5-16 8-14 9-10 9-8 14-7z" fill="#335772"/>
<path transform="translate(861,482)" d="m0 0h33l17 5 13 7 10 9 6 9 2 5v16l-6 10-10 9-16 8-20 6-23 4-46 6-26 5-25 7-29 10-29 12-30 15-21 12-27 18-14 10-14 11-14 12-9 7-7 7-8 7-18 18-7 8-12 14-14 19-8 11-13 20-6 10-1-2 12-26 11-23 14-27 14-23 14-20 12-16 16-20 10-11 9-11 26-26 8-7 13-12 14-11 16-13 19-13 15-10 28-17 25-13 25-10 25-8 31-6z" fill="#5BB1CE"/>
<path transform="translate(1561,1230)" d="m0 0 1 2-4 10-6 12-12 27-20 38-14 22-14 20-10 14-11 13-9 11-13 14-7 8-26 26-8 7-14 12-27 21-17 12-10 7-22 14-18 10-25 12-24 9-24 7-28 5-20 2h-14l-18-2-12-4-11-6-10-9-6-8-3-8v-12l4-9 8-9 11-7 8-4 19-6 22-4 44-5 30-6 32-9 29-10 24-10 28-14 22-13 19-12 12-8 19-14 12-10 11-9 8-8 8-7 27-27 9-11 10-12 14-19 15-23 7-12z" fill="#5AB0CD"/>
<path transform="translate(469,536)" d="m0 0h15l10 3 10 6 12 11 8 10 9 16 6 14 4 13 2 12v23l-4 18-6 16-16 34-13 29-16 41-12 36-9 30-9 37-7 39-5 37-2 25-1 22-1 5h-1l-1-34v-22l1-26 4-41 5-35 12-76 3-28 1-12v-47l-3-20-5-17-7-16-13-23-5-10-3-13v-14l3-12 6-12 9-10 7-5z" fill="#5BB1CE"/>
<path transform="translate(1603,1034)" d="m0 0 2 4v71l-3 37-6 45-11 68-4 35-1 13v48l3 19 6 20 11 23 9 15 5 13 2 10v11l-4 16-7 11-7 8-11 7-11 3h-10l-10-3-11-6-10-9-9-10-9-15-8-17-4-13-2-12v-23l3-15 5-15 12-26 14-31 15-36 15-42 12-41 9-37 6-33 5-36 2-21z" fill="#5BB0CD"/>
<path transform="translate(1474,1402)" d="m0 0 1 2-14 24-15 29-11 24-6 18-5 25-4 36-4 14-7 11-7 6-12 6-8 2h-9l-9-2-9-5-6-7-4-9v-13l4-13 7-13 10-14 14-17 15-15 7-8 25-25 7-8 10-11 9-11 14-17z" fill="#5BB1CE"/>
<path transform="translate(666,448)" d="m0 0h12l11 4 9 8 3 5 2 10-1 12-4 12-6 12-8 11-11 13-9 10-46 46-9 11-10 11-9 11-16 20-1-2 13-22 12-23 8-16 11-27 5-18 3-21 3-27 3-12 5-10 8-9 10-6z" fill="#5BB1CE"/>
<path transform="translate(928,1284)" d="m0 0h12l20 6 26 8 31 7 29 4 14 1h46l30-4 10-2h6l-3 2-17 5-39 8-29 4-28 2h-31l-22-2-22-5-16-6-13-7-9-7-2-4 1-5 4-4z" fill="#DFF7FE"/>
<path transform="translate(1013,721)" d="m0 0h30l27 3 18 4 15 6 13 7 9 7 2 3v5l-4 5-5 2-10-1-46-14-26-6-25-4-20-2-28-1-28 2-27 4-13 2 2-2 31-8 44-8 27-3z" fill="#DFF7FE"/>
<path transform="translate(859,493)" d="m0 0h30l15 3 12 5 9 6 3 4v6l-8 2-10-1-27-6-23-3h-25l-22 3-26 6-29 8-4-1 16-7 24-9 32-10 25-5z" fill="#DFF7FE"/>
<path transform="translate(1287,1521)" d="m0 0 4 1-17 8-24 9-22 7-27 6-16 2h-20l-20-4-12-5-9-6-4-4v-5l3-2h11l25 6 23 3h35l27-4 40-11z" fill="#DFF7FE"/>
<path transform="translate(908,592)" d="m0 0h25l33 4 18 6 15 8 11 10-1 5-6 3-9-2-34-13-23-7-17-4-15-2-17-1h-34v-1l17-3 17-2z" fill="#DFF7FE"/>
<path transform="translate(1044,1419)" d="m0 0 10 1 24 10 23 8 27 6 25 3h41l-2 2-28 4h-57l-19-2-19-5-19-9-9-7-2-3v-5z" fill="#DFF7FE"/>
<path transform="translate(662,454)" d="m0 0h9l-1 4-16 12-8 9-6 12-6 21h-1v-16l3-16 4-9 7-8 7-6z" fill="#DFF7FE"/>
<path transform="translate(1415,1533)" d="m0 0h1l-1 20-4 16-5 10-7 7-12 6h-10v-3l15-11 5-4 7-10 5-12z" fill="#DFF7FE"/>
<path transform="translate(1607,1473)" d="m0 0 1 3-5 10-9 10-10 6-12 3-9-1-10-5-1-5 1-1h24l12-3 9-6z" fill="#DFF7FE"/>
<path transform="translate(474,542)" d="m0 0h8l11 4 3 4-1 4h-27l-10 3-9 6-7 9-1-4 6-10 9-9 10-5z" fill="#DFF7FE"/>
</svg>
