<?xml version="1.0" encoding="UTF-8"?>
<svg xmlns="http://www.w3.org/2000/svg" xmlns:xlink="http://www.w3.org/1999/xlink" width="24px" height="24px" viewBox="0 0 24 24" version="1.1">
<g id="surface1">
<path style=" stroke:none;fill-rule:nonzero;fill:rgb(34.901961%,69.411765%,80.392157%);fill-opacity:1;" d="M 9.796875 3.375 L 10.277344 3.375 L 10.6875 3.398438 L 11.039062 3.445312 L 11.308594 3.503906 L 11.496094 3.574219 L 11.660156 3.667969 L 11.777344 3.761719 L 11.894531 3.867188 L 12.011719 4.019531 L 12.09375 4.195312 L 12.140625 4.371094 L 12.140625 4.617188 L 12.09375 4.792969 L 12.011719 4.957031 L 11.917969 5.074219 L 11.824219 5.167969 L 11.707031 5.25 L 11.484375 5.367188 L 11.273438 5.4375 L 10.980469 5.496094 L 10.875 5.507812 L 10.429688 5.507812 L 10.148438 5.472656 L 9.761719 5.390625 L 9.175781 5.25 L 8.8125 5.179688 L 8.589844 5.15625 L 8.390625 5.144531 L 8.0625 5.144531 L 7.675781 5.191406 L 7.347656 5.261719 L 7.03125 5.355469 L 6.796875 5.449219 L 6.609375 5.542969 L 6.433594 5.648438 L 6.246094 5.789062 L 6.117188 5.917969 L 6.035156 6.035156 L 5.988281 6.128906 L 5.964844 6.210938 L 5.964844 6.375 L 6.023438 6.492188 L 6.128906 6.585938 L 6.304688 6.667969 L 6.515625 6.714844 L 6.75 6.738281 L 7.066406 6.738281 L 7.558594 6.679688 L 7.863281 6.621094 L 8.378906 6.492188 L 9.035156 6.304688 L 9.527344 6.175781 L 10.054688 6.058594 L 10.605469 5.953125 L 11.132812 5.871094 L 11.425781 5.835938 L 12 5.800781 L 12.503906 5.800781 L 12.832031 5.824219 L 13.113281 5.871094 L 13.394531 5.941406 L 13.617188 6.023438 L 13.863281 6.152344 L 14.027344 6.269531 L 14.15625 6.375 L 14.34375 6.5625 L 14.496094 6.761719 L 14.613281 6.972656 L 14.695312 7.171875 L 14.753906 7.417969 L 14.765625 7.523438 L 14.765625 7.734375 L 14.730469 7.933594 L 14.660156 8.121094 L 14.578125 8.273438 L 14.484375 8.390625 L 14.34375 8.53125 L 14.214844 8.625 L 13.96875 8.753906 L 13.757812 8.824219 L 13.582031 8.859375 L 13.394531 8.882812 L 12.949219 8.882812 L 12.5625 8.835938 L 12.152344 8.765625 L 11.589844 8.648438 L 11.039062 8.519531 L 10.429688 8.390625 L 10.007812 8.320312 L 9.691406 8.285156 L 9.515625 8.273438 L 9.128906 8.261719 L 8.847656 8.273438 L 8.414062 8.332031 L 7.945312 8.425781 L 7.617188 8.519531 L 7.195312 8.660156 L 6.902344 8.777344 L 6.621094 8.90625 L 6.363281 9.046875 L 6.09375 9.199219 L 5.859375 9.351562 L 5.695312 9.46875 L 5.496094 9.621094 L 5.308594 9.773438 L 5.144531 9.914062 L 4.945312 10.113281 L 4.921875 10.113281 L 4.921875 10.136719 L 4.863281 10.183594 L 4.78125 10.277344 L 4.6875 10.371094 L 4.582031 10.5 L 4.476562 10.617188 L 4.347656 10.78125 L 4.195312 10.992188 L 4.042969 11.226562 L 3.867188 11.519531 L 3.726562 11.789062 L 3.5625 12.128906 L 3.433594 12.457031 L 3.304688 12.84375 L 3.210938 13.207031 L 3.152344 13.5 L 3.09375 13.898438 L 3.058594 14.238281 L 3.046875 14.402344 L 3.046875 15.246094 L 3.082031 15.691406 L 3.140625 16.136719 L 3.222656 16.582031 L 3.316406 16.980469 L 3.410156 17.332031 L 3.550781 17.753906 L 3.667969 18.082031 L 3.867188 18.550781 L 4.054688 18.9375 L 4.195312 19.207031 L 4.359375 19.488281 L 4.511719 19.734375 L 4.605469 19.875 L 4.734375 20.0625 L 4.921875 20.308594 L 5.050781 20.472656 L 5.15625 20.601562 L 5.308594 20.777344 L 5.390625 20.859375 L 5.472656 20.953125 L 5.671875 21.152344 L 5.765625 21.234375 L 5.917969 21.375 L 6.046875 21.480469 L 6.257812 21.644531 L 6.433594 21.761719 L 6.539062 21.84375 L 6.515625 21.855469 L 6.222656 21.691406 L 5.941406 21.515625 L 5.613281 21.292969 L 5.402344 21.140625 L 5.25 21.023438 L 5.085938 20.894531 L 4.898438 20.742188 L 4.78125 20.648438 L 4.617188 20.507812 L 4.441406 20.34375 L 4.324219 20.238281 L 3.84375 19.757812 L 3.761719 19.664062 L 3.621094 19.511719 L 3.515625 19.382812 L 3.410156 19.265625 L 3.175781 18.972656 L 3.011719 18.75 L 2.859375 18.539062 L 2.625 18.1875 L 2.460938 17.929688 L 2.308594 17.671875 L 2.15625 17.390625 L 2.015625 17.132812 L 1.886719 16.863281 L 1.757812 16.582031 L 1.582031 16.160156 L 1.40625 15.679688 L 1.242188 15.164062 L 1.089844 14.554688 L 0.996094 14.097656 L 0.914062 13.582031 L 0.855469 13.042969 L 0.820312 12.445312 L 0.820312 11.742188 L 0.84375 11.285156 L 0.890625 10.792969 L 0.949219 10.359375 L 1.019531 9.949219 L 1.125 9.46875 L 1.207031 9.164062 L 1.324219 8.824219 L 1.464844 8.496094 L 1.605469 8.203125 L 1.757812 7.933594 L 1.863281 7.757812 L 1.992188 7.558594 L 2.132812 7.359375 L 2.273438 7.171875 L 2.425781 6.984375 L 2.554688 6.832031 L 2.660156 6.714844 L 2.742188 6.621094 L 2.929688 6.421875 L 3.152344 6.199219 L 3.246094 6.117188 L 3.421875 5.953125 L 3.550781 5.847656 L 3.65625 5.753906 L 4.054688 5.449219 L 4.253906 5.308594 L 4.476562 5.15625 L 4.746094 4.980469 L 4.957031 4.851562 L 5.25 4.6875 L 5.507812 4.546875 L 5.976562 4.3125 L 6.304688 4.171875 L 6.667969 4.03125 L 7.089844 3.878906 L 7.453125 3.761719 L 7.886719 3.644531 L 8.355469 3.539062 L 8.753906 3.46875 L 9.128906 3.421875 L 9.5625 3.386719 Z M 9.796875 3.375 "/>
<path style=" stroke:none;fill-rule:nonzero;fill:rgb(34.901961%,69.411765%,80.392157%);fill-opacity:1;" d="M 17.4375 2.144531 L 17.496094 2.167969 L 17.730469 2.296875 L 17.90625 2.414062 L 18.09375 2.53125 L 18.410156 2.742188 L 18.621094 2.894531 L 18.773438 3.011719 L 18.960938 3.164062 L 19.089844 3.269531 L 19.242188 3.398438 L 19.359375 3.503906 L 19.488281 3.609375 L 19.582031 3.703125 L 19.675781 3.785156 L 20.167969 4.277344 L 20.25 4.371094 L 20.390625 4.523438 L 20.496094 4.652344 L 20.660156 4.851562 L 20.8125 5.039062 L 21.117188 5.460938 L 21.246094 5.648438 L 21.421875 5.917969 L 21.574219 6.164062 L 21.679688 6.339844 L 21.832031 6.621094 L 21.972656 6.878906 L 22.160156 7.265625 L 22.335938 7.675781 L 22.476562 8.039062 L 22.628906 8.472656 L 22.769531 8.941406 L 22.910156 9.503906 L 23.003906 9.972656 L 23.074219 10.429688 L 23.132812 10.957031 L 23.167969 11.53125 L 23.167969 12.328125 L 23.144531 12.75 L 23.109375 13.148438 L 23.050781 13.605469 L 22.96875 14.085938 L 22.863281 14.578125 L 22.769531 14.894531 L 22.652344 15.222656 L 22.523438 15.527344 L 22.382812 15.820312 L 22.230469 16.089844 L 22.125 16.265625 L 21.996094 16.464844 L 21.855469 16.664062 L 21.75 16.804688 L 21.585938 17.015625 L 21.433594 17.191406 L 21.292969 17.355469 L 21.1875 17.460938 L 21.105469 17.554688 L 20.835938 17.824219 L 20.742188 17.90625 L 20.566406 18.070312 L 20.4375 18.175781 L 20.320312 18.28125 L 20.167969 18.398438 L 19.933594 18.574219 L 19.734375 18.714844 L 19.277344 19.019531 L 19.03125 19.171875 L 18.761719 19.324219 L 18.386719 19.523438 L 18.070312 19.675781 L 17.777344 19.804688 L 17.378906 19.96875 L 17.027344 20.097656 L 16.546875 20.25 L 16.101562 20.367188 L 15.644531 20.472656 L 15.246094 20.542969 L 14.683594 20.613281 L 14.390625 20.636719 L 14.144531 20.648438 L 13.828125 20.648438 L 13.40625 20.625 L 12.984375 20.578125 L 12.691406 20.519531 L 12.503906 20.449219 L 12.316406 20.34375 L 12.1875 20.238281 L 12.046875 20.097656 L 11.941406 19.933594 L 11.871094 19.757812 L 11.847656 19.652344 L 11.847656 19.40625 L 11.894531 19.230469 L 11.976562 19.066406 L 12.070312 18.949219 L 12.175781 18.84375 L 12.339844 18.738281 L 12.527344 18.644531 L 12.703125 18.585938 L 12.996094 18.527344 L 13.195312 18.503906 L 13.511719 18.503906 L 13.839844 18.539062 L 14.226562 18.621094 L 14.753906 18.75 L 15.175781 18.832031 L 15.492188 18.867188 L 15.738281 18.878906 L 16.101562 18.855469 L 16.289062 18.832031 L 16.617188 18.761719 L 16.933594 18.667969 L 17.214844 18.550781 L 17.402344 18.457031 L 17.566406 18.363281 L 17.730469 18.234375 L 17.847656 18.128906 L 17.941406 18 L 18.011719 17.859375 L 18.035156 17.71875 L 18.011719 17.601562 L 17.941406 17.496094 L 17.859375 17.425781 L 17.683594 17.34375 L 17.472656 17.296875 L 17.390625 17.285156 L 16.875 17.285156 L 16.40625 17.34375 L 16.066406 17.414062 L 15.5625 17.542969 L 14.941406 17.71875 L 14.414062 17.847656 L 13.828125 17.976562 L 13.3125 18.070312 L 12.773438 18.152344 L 12.328125 18.199219 L 12.128906 18.210938 L 11.484375 18.210938 L 11.144531 18.1875 L 10.875 18.140625 L 10.570312 18.058594 L 10.40625 18 L 10.160156 17.882812 L 9.984375 17.765625 L 9.855469 17.660156 L 9.703125 17.519531 L 9.597656 17.390625 L 9.503906 17.261719 L 9.386719 17.0625 L 9.292969 16.828125 L 9.234375 16.558594 L 9.234375 16.242188 L 9.28125 16.03125 L 9.363281 15.84375 L 9.433594 15.726562 L 9.515625 15.621094 L 9.632812 15.503906 L 9.832031 15.363281 L 10.019531 15.269531 L 10.265625 15.1875 L 10.558594 15.140625 L 10.710938 15.128906 L 10.851562 15.128906 L 11.226562 15.152344 L 11.578125 15.199219 L 12 15.28125 L 12.785156 15.457031 L 13.183594 15.550781 L 13.769531 15.65625 L 14.179688 15.714844 L 14.519531 15.75 L 14.953125 15.75 L 15.292969 15.726562 L 15.621094 15.679688 L 15.960938 15.609375 L 16.394531 15.492188 L 16.769531 15.363281 L 17.085938 15.234375 L 17.390625 15.09375 L 17.730469 14.917969 L 18 14.753906 L 18.234375 14.589844 L 18.433594 14.449219 L 18.621094 14.296875 L 18.796875 14.144531 L 18.984375 13.96875 L 19.03125 13.945312 L 19.03125 13.921875 L 19.125 13.839844 L 19.253906 13.699219 L 19.394531 13.546875 L 19.5 13.417969 L 19.628906 13.253906 L 19.804688 13.019531 L 19.96875 12.761719 L 20.109375 12.527344 L 20.261719 12.246094 L 20.402344 11.953125 L 20.554688 11.566406 L 20.683594 11.179688 L 20.789062 10.78125 L 20.859375 10.429688 L 20.917969 9.9375 L 20.941406 9.632812 L 20.953125 9.328125 L 20.953125 9.070312 L 20.941406 8.730469 L 20.90625 8.296875 L 20.847656 7.863281 L 20.765625 7.417969 L 20.648438 6.925781 L 20.53125 6.527344 L 20.378906 6.082031 L 20.203125 5.648438 L 20.015625 5.238281 L 19.851562 4.910156 L 19.699219 4.640625 L 19.535156 4.371094 L 19.371094 4.113281 L 19.253906 3.949219 L 19.148438 3.808594 L 19.03125 3.65625 L 18.878906 3.46875 L 18.773438 3.339844 L 18.632812 3.1875 L 18.503906 3.046875 L 18.328125 2.871094 L 18.234375 2.789062 L 18.070312 2.636719 L 17.941406 2.53125 L 17.730469 2.367188 L 17.542969 2.238281 L 17.4375 2.15625 Z M 17.4375 2.144531 "/>
<path style=" stroke:none;fill-rule:nonzero;fill:rgb(99.215686%,99.215686%,99.215686%);fill-opacity:1;" d="M 6.058594 9.867188 L 6.058594 9.902344 L 5.929688 10.101562 L 5.824219 10.277344 L 5.683594 10.535156 L 5.578125 10.769531 L 5.460938 11.097656 L 5.378906 11.402344 L 5.332031 11.671875 L 5.308594 11.859375 L 5.296875 12.070312 L 5.296875 12.257812 L 5.320312 12.574219 L 5.367188 12.878906 L 5.4375 13.171875 L 5.53125 13.476562 L 5.683594 13.851562 L 5.835938 14.167969 L 6 14.449219 L 6.140625 14.683594 L 6.292969 14.90625 L 6.445312 15.117188 L 6.5625 15.269531 L 6.714844 15.457031 L 6.84375 15.609375 L 6.996094 15.785156 L 7.125 15.925781 L 7.230469 16.042969 L 7.40625 16.230469 L 7.945312 16.769531 L 8.039062 16.851562 L 8.121094 16.933594 L 8.214844 17.015625 L 8.332031 17.121094 L 8.460938 17.226562 L 8.625 17.378906 L 8.753906 17.484375 L 8.894531 17.613281 L 9.023438 17.71875 L 9.222656 17.882812 L 9.351562 17.988281 L 9.515625 18.128906 L 9.691406 18.292969 L 9.890625 18.492188 L 9.996094 18.621094 L 10.125 18.773438 L 10.277344 18.984375 L 10.429688 19.230469 L 10.570312 19.488281 L 10.675781 19.710938 L 10.78125 19.980469 L 10.863281 20.261719 L 10.933594 20.578125 L 10.96875 20.859375 L 10.96875 21.351562 L 10.921875 21.65625 L 10.851562 21.902344 L 10.757812 22.125 L 10.6875 22.253906 L 10.582031 22.394531 L 10.453125 22.535156 L 10.347656 22.628906 L 10.195312 22.722656 L 10.066406 22.78125 L 9.878906 22.839844 L 9.714844 22.875 L 9.28125 22.875 L 8.988281 22.816406 L 8.566406 22.699219 L 8.179688 22.570312 L 7.804688 22.417969 L 7.371094 22.207031 L 7.101562 22.054688 L 6.867188 21.914062 L 6.644531 21.761719 L 6.46875 21.632812 L 6.257812 21.46875 L 6.140625 21.375 L 5.964844 21.222656 L 5.835938 21.105469 L 5.742188 21.023438 L 5.578125 20.847656 L 5.496094 20.765625 L 5.414062 20.671875 L 5.296875 20.542969 L 5.191406 20.414062 L 5.0625 20.261719 L 4.910156 20.0625 L 4.757812 19.839844 L 4.640625 19.664062 L 4.5 19.441406 L 4.335938 19.148438 L 4.253906 19.007812 L 4.160156 18.820312 L 4.019531 18.515625 L 3.902344 18.234375 L 3.773438 17.882812 L 3.632812 17.4375 L 3.527344 17.027344 L 3.445312 16.628906 L 3.375 16.148438 L 3.339844 15.761719 L 3.328125 15.550781 L 3.328125 14.917969 L 3.363281 14.449219 L 3.421875 14.015625 L 3.480469 13.710938 L 3.574219 13.324219 L 3.703125 12.914062 L 3.785156 12.691406 L 3.914062 12.386719 L 4.054688 12.09375 L 4.171875 11.871094 L 4.335938 11.601562 L 4.5 11.367188 L 4.640625 11.179688 L 4.769531 11.015625 L 4.875 10.898438 L 4.957031 10.804688 L 5.050781 10.710938 L 5.132812 10.617188 L 5.226562 10.535156 L 5.378906 10.382812 L 5.542969 10.253906 L 5.742188 10.089844 L 5.964844 9.9375 Z M 6.058594 9.867188 "/>
<path style=" stroke:none;fill-rule:nonzero;fill:rgb(99.215686%,99.215686%,99.215686%);fill-opacity:1;" d="M 14.320312 1.136719 L 14.660156 1.136719 L 14.882812 1.171875 L 15.199219 1.253906 L 15.585938 1.371094 L 15.914062 1.488281 L 16.195312 1.605469 L 16.605469 1.804688 L 16.921875 1.980469 L 17.203125 2.15625 L 17.390625 2.285156 L 17.554688 2.402344 L 17.730469 2.542969 L 17.859375 2.648438 L 17.988281 2.765625 L 18.082031 2.847656 L 18.222656 2.976562 L 18.503906 3.257812 L 18.585938 3.351562 L 18.703125 3.480469 L 18.808594 3.609375 L 18.9375 3.773438 L 19.089844 3.972656 L 19.242188 4.183594 L 19.429688 4.476562 L 19.535156 4.652344 L 19.699219 4.945312 L 19.898438 5.34375 L 20.085938 5.777344 L 20.238281 6.199219 L 20.355469 6.574219 L 20.472656 7.042969 L 20.542969 7.382812 L 20.613281 7.875 L 20.648438 8.238281 L 20.660156 8.449219 L 20.660156 9.117188 L 20.625 9.574219 L 20.566406 10.007812 L 20.507812 10.3125 L 20.390625 10.78125 L 20.308594 11.050781 L 20.167969 11.425781 L 20.039062 11.71875 L 19.886719 12.023438 L 19.699219 12.339844 L 19.617188 12.46875 L 19.441406 12.726562 L 19.289062 12.914062 L 19.183594 13.042969 L 19.078125 13.160156 L 18.996094 13.253906 L 18.703125 13.546875 L 18.609375 13.628906 L 18.445312 13.769531 L 18.28125 13.898438 L 18.09375 14.039062 L 17.953125 14.132812 L 17.929688 14.121094 L 18.011719 14.003906 L 18.117188 13.828125 L 18.257812 13.570312 L 18.398438 13.277344 L 18.515625 12.960938 L 18.597656 12.679688 L 18.65625 12.363281 L 18.679688 12.164062 L 18.691406 11.964844 L 18.691406 11.730469 L 18.667969 11.425781 L 18.609375 11.074219 L 18.515625 10.722656 L 18.421875 10.441406 L 18.292969 10.136719 L 18.09375 9.738281 L 17.90625 9.421875 L 17.660156 9.058594 L 17.542969 8.894531 L 17.425781 8.742188 L 17.332031 8.625 L 17.203125 8.472656 L 17.097656 8.34375 L 16.980469 8.214844 L 16.898438 8.121094 L 16.617188 7.816406 L 16.148438 7.347656 L 16.054688 7.265625 L 15.960938 7.171875 L 15.867188 7.089844 L 15.785156 7.007812 L 15.691406 6.925781 L 15.550781 6.796875 L 15.457031 6.714844 L 15.292969 6.574219 L 15.164062 6.46875 L 15 6.328125 L 14.871094 6.222656 L 14.707031 6.082031 L 14.578125 5.976562 L 14.414062 5.835938 L 14.332031 5.753906 L 14.238281 5.671875 L 14.0625 5.484375 L 13.933594 5.332031 L 13.769531 5.109375 L 13.582031 4.828125 L 13.476562 4.640625 L 13.347656 4.382812 L 13.230469 4.089844 L 13.148438 3.84375 L 13.078125 3.550781 L 13.03125 3.257812 L 13.019531 3.140625 L 13.019531 2.683594 L 13.054688 2.425781 L 13.125 2.144531 L 13.21875 1.921875 L 13.324219 1.734375 L 13.453125 1.570312 L 13.59375 1.429688 L 13.746094 1.324219 L 13.933594 1.230469 L 14.15625 1.160156 Z M 14.320312 1.136719 "/>
<path style=" stroke:none;fill-rule:nonzero;fill:rgb(34.901961%,69.411765%,80.392157%);fill-opacity:1;" d="M 22.453125 15.984375 L 22.464844 16.019531 L 22.3125 16.359375 L 22.183594 16.652344 L 22.042969 16.957031 L 21.808594 17.425781 L 21.65625 17.695312 L 21.480469 18 L 21.316406 18.257812 L 21.152344 18.492188 L 21.011719 18.691406 L 20.847656 18.902344 L 20.71875 19.066406 L 20.589844 19.21875 L 20.484375 19.347656 L 20.367188 19.476562 L 20.285156 19.570312 L 20.121094 19.746094 L 19.605469 20.261719 L 19.511719 20.34375 L 19.382812 20.460938 L 19.253906 20.566406 L 19.089844 20.707031 L 18.738281 20.976562 L 18.515625 21.140625 L 18.316406 21.28125 L 18.140625 21.398438 L 17.894531 21.550781 L 17.601562 21.726562 L 17.261719 21.914062 L 16.910156 22.078125 L 16.558594 22.21875 L 16.207031 22.335938 L 15.867188 22.417969 L 15.503906 22.488281 L 15.164062 22.535156 L 14.988281 22.546875 L 14.542969 22.546875 L 14.34375 22.5 L 14.167969 22.441406 L 13.980469 22.347656 L 13.839844 22.242188 L 13.699219 22.101562 L 13.605469 21.9375 L 13.570312 21.832031 L 13.558594 21.761719 L 13.558594 21.667969 L 13.59375 21.527344 L 13.640625 21.433594 L 13.734375 21.316406 L 13.816406 21.234375 L 13.933594 21.152344 L 14.15625 21.035156 L 14.378906 20.953125 L 14.730469 20.871094 L 14.953125 20.835938 L 15.621094 20.765625 L 16.101562 20.683594 L 16.523438 20.589844 L 16.921875 20.484375 L 17.332031 20.34375 L 17.71875 20.191406 L 18.070312 20.039062 L 18.480469 19.839844 L 18.761719 19.675781 L 18.996094 19.546875 L 19.183594 19.429688 L 19.605469 19.148438 L 19.816406 18.996094 L 19.96875 18.878906 L 20.15625 18.726562 L 20.273438 18.632812 L 20.402344 18.527344 L 20.566406 18.375 L 20.660156 18.292969 L 20.753906 18.199219 L 20.847656 18.117188 L 21.046875 17.917969 L 21.128906 17.824219 L 21.246094 17.707031 L 21.351562 17.578125 L 21.457031 17.460938 L 21.539062 17.355469 L 21.691406 17.167969 L 21.867188 16.933594 L 21.996094 16.746094 L 22.125 16.546875 L 22.253906 16.335938 L 22.394531 16.089844 Z M 22.453125 15.984375 "/>
<path style=" stroke:none;fill-rule:nonzero;fill:rgb(34.901961%,69.411765%,80.392157%);fill-opacity:1;" d="M 9.09375 1.464844 L 9.351562 1.464844 L 9.574219 1.5 L 9.703125 1.535156 L 9.878906 1.605469 L 10.066406 1.710938 L 10.21875 1.839844 L 10.324219 1.96875 L 10.40625 2.132812 L 10.429688 2.238281 L 10.429688 2.367188 L 10.382812 2.519531 L 10.3125 2.636719 L 10.207031 2.753906 L 10.066406 2.859375 L 9.820312 2.988281 L 9.527344 3.082031 L 9.28125 3.140625 L 8.882812 3.199219 L 8.355469 3.257812 L 7.886719 3.328125 L 7.523438 3.410156 L 7.054688 3.539062 L 6.679688 3.667969 L 6.257812 3.832031 L 5.941406 3.972656 L 5.601562 4.136719 L 5.285156 4.300781 L 4.957031 4.5 L 4.710938 4.652344 L 4.464844 4.816406 L 4.265625 4.957031 L 4.019531 5.144531 L 3.832031 5.296875 L 3.714844 5.390625 L 3.5625 5.519531 L 3.398438 5.671875 L 3.304688 5.753906 L 3.199219 5.859375 L 3.105469 5.941406 L 2.941406 6.117188 L 2.765625 6.292969 L 2.683594 6.386719 L 2.578125 6.503906 L 2.449219 6.667969 L 2.332031 6.808594 L 2.226562 6.949219 L 2.074219 7.160156 L 1.910156 7.40625 L 1.746094 7.664062 L 1.59375 7.945312 L 1.523438 8.074219 L 1.511719 8.050781 L 1.640625 7.746094 L 1.863281 7.253906 L 2.003906 6.960938 L 2.15625 6.65625 L 2.296875 6.398438 L 2.460938 6.117188 L 2.636719 5.835938 L 2.859375 5.507812 L 3.011719 5.296875 L 3.128906 5.144531 L 3.257812 4.980469 L 3.386719 4.828125 L 3.492188 4.699219 L 3.644531 4.523438 L 3.820312 4.335938 L 3.902344 4.242188 L 4.289062 3.855469 L 4.382812 3.773438 L 4.511719 3.65625 L 4.640625 3.550781 L 4.78125 3.421875 L 4.910156 3.316406 L 5.097656 3.164062 L 5.285156 3.023438 L 5.507812 2.859375 L 5.753906 2.695312 L 6.023438 2.519531 L 6.328125 2.332031 L 6.621094 2.167969 L 6.820312 2.0625 L 7.160156 1.910156 L 7.558594 1.757812 L 7.769531 1.6875 L 8.109375 1.605469 L 8.53125 1.523438 L 8.917969 1.476562 Z M 9.09375 1.464844 "/>
<path style=" stroke:none;fill-rule:nonzero;fill:rgb(34.901961%,69.411765%,80.392157%);fill-opacity:1;" d="M 1.277344 2.519531 L 1.476562 2.519531 L 1.628906 2.554688 L 1.816406 2.648438 L 1.945312 2.730469 L 2.097656 2.871094 L 2.203125 2.988281 L 2.34375 3.199219 L 2.460938 3.398438 L 2.566406 3.632812 L 2.648438 3.878906 L 2.695312 4.089844 L 2.71875 4.300781 L 2.71875 4.511719 L 2.695312 4.710938 L 2.636719 4.980469 L 2.519531 5.296875 L 2.367188 5.613281 L 2.191406 6 L 2.003906 6.410156 L 1.792969 6.925781 L 1.582031 7.488281 L 1.441406 7.910156 L 1.289062 8.402344 L 1.136719 8.988281 L 1.019531 9.515625 L 0.925781 10.042969 L 0.84375 10.628906 L 0.796875 11.121094 L 0.773438 11.507812 L 0.761719 12.070312 L 0.75 12.070312 L 0.726562 11.859375 L 0.714844 11.671875 L 0.703125 11.320312 L 0.703125 10.675781 L 0.726562 10.171875 L 0.761719 9.726562 L 0.84375 9.058594 L 0.972656 8.25 L 1.078125 7.617188 L 1.148438 7.101562 L 1.195312 6.609375 L 1.21875 6.117188 L 1.21875 5.742188 L 1.195312 5.4375 L 1.160156 5.214844 L 1.101562 4.992188 L 1.007812 4.734375 L 0.855469 4.417969 L 0.667969 4.101562 L 0.585938 3.9375 L 0.527344 3.738281 L 0.515625 3.667969 L 0.515625 3.363281 L 0.550781 3.199219 L 0.609375 3.046875 L 0.679688 2.917969 L 0.761719 2.8125 L 0.785156 2.777344 L 0.808594 2.777344 L 0.808594 2.753906 L 0.960938 2.636719 L 1.101562 2.566406 Z M 1.277344 2.519531 "/>
<path style=" stroke:none;fill-rule:nonzero;fill:rgb(34.901961%,69.411765%,80.392157%);fill-opacity:1;" d="M 23.238281 11.941406 L 23.25 11.941406 L 23.261719 12.070312 L 23.285156 12.691406 L 23.285156 13.382812 L 23.261719 13.863281 L 23.214844 14.390625 L 23.144531 14.953125 L 23.027344 15.691406 L 22.910156 16.40625 L 22.851562 16.816406 L 22.804688 17.285156 L 22.78125 17.601562 L 22.769531 17.929688 L 22.769531 18.082031 L 22.792969 18.503906 L 22.828125 18.761719 L 22.898438 19.042969 L 22.992188 19.300781 L 23.109375 19.546875 L 23.238281 19.769531 L 23.34375 19.945312 L 23.425781 20.132812 L 23.472656 20.308594 L 23.484375 20.390625 L 23.484375 20.625 L 23.449219 20.8125 L 23.390625 20.976562 L 23.285156 21.152344 L 23.144531 21.304688 L 23.015625 21.398438 L 22.851562 21.46875 L 22.769531 21.492188 L 22.59375 21.503906 L 22.382812 21.46875 L 22.195312 21.386719 L 22.066406 21.292969 L 21.914062 21.164062 L 21.773438 21 L 21.609375 20.753906 L 21.492188 20.542969 L 21.375 20.25 L 21.316406 20.027344 L 21.28125 19.792969 L 21.28125 19.429688 L 21.328125 19.160156 L 21.386719 18.960938 L 21.515625 18.632812 L 21.726562 18.1875 L 21.902344 17.800781 L 22.078125 17.390625 L 22.253906 16.945312 L 22.40625 16.535156 L 22.546875 16.125 L 22.6875 15.65625 L 22.804688 15.222656 L 22.910156 14.789062 L 23.027344 14.203125 L 23.109375 13.6875 L 23.167969 13.183594 L 23.203125 12.75 Z M 23.238281 11.941406 "/>
<path style=" stroke:none;fill-rule:nonzero;fill:rgb(34.901961%,69.411765%,80.392157%);fill-opacity:1;" d="M 20.976562 19.007812 L 20.988281 19.03125 L 20.8125 19.3125 L 20.660156 19.558594 L 20.519531 19.816406 L 20.367188 20.085938 L 20.132812 20.554688 L 19.96875 20.941406 L 19.839844 21.328125 L 19.78125 21.574219 L 19.746094 21.84375 L 19.710938 22.265625 L 19.675781 22.5 L 19.617188 22.6875 L 19.535156 22.851562 L 19.429688 22.980469 L 19.289062 23.085938 L 19.125 23.167969 L 18.949219 23.203125 L 18.714844 23.203125 L 18.574219 23.167969 L 18.445312 23.097656 L 18.339844 23.003906 L 18.257812 22.863281 L 18.222656 22.734375 L 18.222656 22.535156 L 18.269531 22.347656 L 18.339844 22.171875 L 18.457031 21.960938 L 18.574219 21.796875 L 18.726562 21.609375 L 18.855469 21.457031 L 18.9375 21.363281 L 19.125 21.164062 L 19.429688 20.859375 L 19.511719 20.765625 L 19.710938 20.566406 L 19.792969 20.472656 L 19.898438 20.367188 L 20.003906 20.238281 L 20.085938 20.15625 L 20.167969 20.0625 L 20.308594 19.898438 L 20.4375 19.734375 L 20.578125 19.558594 L 20.707031 19.394531 L 20.847656 19.195312 Z M 20.976562 19.007812 "/>
<path style=" stroke:none;fill-rule:nonzero;fill:rgb(34.901961%,69.411765%,80.392157%);fill-opacity:1;" d="M 5.015625 0.820312 L 5.273438 0.820312 L 5.414062 0.855469 L 5.554688 0.9375 L 5.636719 1.007812 L 5.71875 1.125 L 5.765625 1.265625 L 5.777344 1.347656 L 5.777344 1.441406 L 5.742188 1.628906 L 5.660156 1.851562 L 5.53125 2.074219 L 5.414062 2.238281 L 5.296875 2.390625 L 5.191406 2.507812 L 5.109375 2.601562 L 5.003906 2.71875 L 4.921875 2.800781 L 4.910156 2.824219 L 4.886719 2.824219 L 4.886719 2.847656 L 4.863281 2.847656 L 4.839844 2.894531 L 4.792969 2.917969 L 4.78125 2.953125 L 4.757812 2.953125 L 4.757812 2.976562 L 4.734375 2.976562 L 4.722656 3.011719 L 4.6875 3.046875 L 4.664062 3.046875 L 4.664062 3.070312 L 4.570312 3.152344 L 4.382812 3.351562 L 4.207031 3.527344 L 4.125 3.621094 L 3.984375 3.773438 L 3.902344 3.867188 L 3.796875 3.984375 L 3.667969 4.136719 L 3.539062 4.300781 L 3.433594 4.429688 L 3.269531 4.640625 L 3.140625 4.828125 L 3.117188 4.839844 L 3.140625 4.78125 L 3.292969 4.523438 L 3.457031 4.242188 L 3.644531 3.902344 L 3.738281 3.714844 L 3.902344 3.375 L 4.054688 3 L 4.160156 2.683594 L 4.21875 2.414062 L 4.253906 2.121094 L 4.289062 1.710938 L 4.324219 1.511719 L 4.382812 1.324219 L 4.453125 1.183594 L 4.558594 1.054688 L 4.6875 0.949219 L 4.851562 0.867188 Z M 5.015625 0.820312 "/>
<path style=" stroke:none;fill-rule:nonzero;fill:rgb(84.313725%,93.72549%,98.823529%);fill-opacity:1;" d="M 11.683594 6.128906 L 12.292969 6.128906 L 12.621094 6.152344 L 12.9375 6.199219 L 13.207031 6.257812 L 13.476562 6.351562 L 13.710938 6.46875 L 13.851562 6.5625 L 13.96875 6.667969 L 14.003906 6.75 L 13.992188 6.832031 L 13.921875 6.914062 L 13.851562 6.949219 L 13.722656 6.960938 L 13.5 6.902344 L 12.996094 6.738281 L 12.550781 6.621094 L 12.164062 6.539062 L 11.777344 6.480469 L 11.460938 6.445312 L 11.296875 6.433594 L 10.664062 6.433594 L 10.265625 6.457031 L 9.972656 6.492188 L 9.46875 6.585938 L 9.351562 6.597656 L 9.363281 6.574219 L 9.574219 6.503906 L 10.019531 6.386719 L 10.488281 6.28125 L 10.980469 6.199219 L 11.378906 6.152344 Z M 11.683594 6.128906 "/>
<path style=" stroke:none;fill-rule:nonzero;fill:rgb(84.313725%,93.72549%,98.823529%);fill-opacity:1;" d="M 10.160156 17.074219 L 10.335938 17.074219 L 10.570312 17.144531 L 11.015625 17.285156 L 11.367188 17.378906 L 11.777344 17.472656 L 12.222656 17.542969 L 12.550781 17.578125 L 12.703125 17.589844 L 13.347656 17.589844 L 13.722656 17.566406 L 14.015625 17.53125 L 14.613281 17.414062 L 14.683594 17.414062 L 14.660156 17.4375 L 14.402344 17.519531 L 13.910156 17.648438 L 13.488281 17.742188 L 13.066406 17.8125 L 12.691406 17.859375 L 12.421875 17.882812 L 12.210938 17.894531 L 11.777344 17.894531 L 11.414062 17.871094 L 11.097656 17.824219 L 10.78125 17.753906 L 10.546875 17.671875 L 10.324219 17.566406 L 10.136719 17.449219 L 10.03125 17.355469 L 9.996094 17.285156 L 10.007812 17.191406 L 10.078125 17.109375 Z M 10.160156 17.074219 "/>
<path style=" stroke:none;fill-rule:nonzero;fill:rgb(84.313725%,93.72549%,98.823529%);fill-opacity:1;" d="M 9.011719 1.675781 L 9.246094 1.675781 L 9.457031 1.699219 L 9.65625 1.746094 L 9.855469 1.828125 L 9.996094 1.910156 L 10.125 2.027344 L 10.148438 2.0625 L 10.148438 2.144531 L 10.089844 2.191406 L 10.007812 2.214844 L 9.808594 2.191406 L 9.433594 2.097656 L 9.082031 2.039062 L 8.859375 2.015625 L 8.402344 2.015625 L 8.0625 2.050781 L 7.734375 2.109375 L 7.371094 2.191406 L 6.984375 2.296875 L 6.773438 2.355469 L 6.75 2.34375 L 6.84375 2.285156 L 7.078125 2.179688 L 7.429688 2.039062 L 7.757812 1.921875 L 8.167969 1.804688 L 8.414062 1.746094 L 8.707031 1.699219 Z M 9.011719 1.675781 "/>
<path style=" stroke:none;fill-rule:nonzero;fill:rgb(84.313725%,93.72549%,98.823529%);fill-opacity:1;" d="M 17.191406 21.667969 L 17.226562 21.679688 L 17.121094 21.738281 L 16.863281 21.855469 L 16.535156 21.984375 L 16.242188 22.089844 L 15.878906 22.195312 L 15.574219 22.265625 L 15.292969 22.3125 L 15.058594 22.335938 L 14.683594 22.335938 L 14.414062 22.289062 L 14.15625 22.195312 L 13.992188 22.101562 L 13.875 21.996094 L 13.839844 21.925781 L 13.851562 21.867188 L 13.886719 21.832031 L 13.980469 21.808594 L 14.144531 21.820312 L 14.683594 21.9375 L 14.988281 21.984375 L 15.222656 22.007812 L 15.515625 22.007812 L 15.878906 21.972656 L 16.289062 21.902344 L 16.734375 21.796875 L 17.132812 21.679688 Z M 17.191406 21.667969 "/>
<path style=" stroke:none;fill-rule:nonzero;fill:rgb(84.313725%,93.72549%,98.823529%);fill-opacity:1;" d="M 9.691406 3.621094 L 10.113281 3.621094 L 10.570312 3.65625 L 10.898438 3.714844 L 11.144531 3.785156 L 11.355469 3.878906 L 11.542969 3.984375 L 11.660156 4.089844 L 11.71875 4.160156 L 11.71875 4.230469 L 11.660156 4.300781 L 11.601562 4.324219 L 11.484375 4.3125 L 11.296875 4.242188 L 10.898438 4.078125 L 10.429688 3.925781 L 10.007812 3.832031 L 9.679688 3.785156 L 9.421875 3.761719 L 8.953125 3.761719 L 8.695312 3.785156 L 8.554688 3.785156 L 8.578125 3.761719 L 8.894531 3.703125 L 9.375 3.644531 Z M 9.691406 3.621094 "/>
<path style=" stroke:none;fill-rule:nonzero;fill:rgb(84.313725%,93.72549%,98.823529%);fill-opacity:1;" d="M 12.410156 19.699219 L 12.515625 19.710938 L 12.738281 19.792969 L 13.042969 19.921875 L 13.488281 20.074219 L 13.863281 20.167969 L 14.214844 20.226562 L 14.460938 20.25 L 14.660156 20.261719 L 15.023438 20.261719 L 15.386719 20.226562 L 15.46875 20.226562 L 15.457031 20.25 L 15.175781 20.308594 L 14.625 20.378906 L 14.273438 20.402344 L 13.910156 20.402344 L 13.441406 20.367188 L 13.160156 20.320312 L 12.867188 20.238281 L 12.644531 20.144531 L 12.433594 20.015625 L 12.316406 19.910156 L 12.28125 19.851562 L 12.292969 19.769531 L 12.363281 19.710938 Z M 12.410156 19.699219 "/>
<path style=" stroke:none;fill-rule:nonzero;fill:rgb(84.313725%,93.72549%,98.823529%);fill-opacity:1;" d="M 4.992188 0.925781 L 5.097656 0.925781 L 5.15625 0.960938 L 5.144531 1.019531 L 4.945312 1.160156 L 4.828125 1.253906 L 4.769531 1.3125 L 4.6875 1.40625 L 4.59375 1.558594 L 4.523438 1.746094 L 4.429688 2.109375 L 4.40625 2.121094 L 4.40625 1.839844 L 4.441406 1.558594 L 4.488281 1.382812 L 4.558594 1.242188 L 4.640625 1.136719 L 4.722656 1.054688 L 4.886719 0.960938 Z M 4.992188 0.925781 "/>
<path style=" stroke:none;fill-rule:nonzero;fill:rgb(84.313725%,93.72549%,98.823529%);fill-opacity:1;" d="M 19.582031 21.925781 L 19.59375 21.925781 L 19.59375 22.148438 L 19.582031 22.324219 L 19.535156 22.558594 L 19.476562 22.699219 L 19.394531 22.839844 L 19.265625 22.96875 L 19.125 23.050781 L 19.019531 23.085938 L 18.878906 23.085938 L 18.84375 23.0625 L 18.855469 23.003906 L 18.960938 22.921875 L 19.125 22.804688 L 19.230469 22.710938 L 19.324219 22.59375 L 19.441406 22.371094 L 19.5 22.195312 L 19.558594 21.960938 Z M 19.582031 21.925781 "/>
<path style=" stroke:none;fill-rule:nonzero;fill:rgb(84.313725%,93.72549%,98.823529%);fill-opacity:1;" d="M 1.3125 2.648438 L 1.5 2.648438 L 1.617188 2.683594 L 1.710938 2.742188 L 1.757812 2.789062 L 1.757812 2.847656 L 1.722656 2.882812 L 1.300781 2.882812 L 1.148438 2.90625 L 1.007812 2.953125 L 0.890625 3.023438 L 0.808594 3.09375 L 0.703125 3.257812 L 0.632812 3.398438 L 0.621094 3.363281 L 0.65625 3.222656 L 0.761719 3.023438 L 0.84375 2.917969 L 0.925781 2.824219 L 1.042969 2.742188 L 1.171875 2.683594 Z M 1.3125 2.648438 "/>
<path style=" stroke:none;fill-rule:nonzero;fill:rgb(84.313725%,93.72549%,98.823529%);fill-opacity:1;" d="M 23.355469 20.625 L 23.367188 20.625 L 23.355469 20.730469 L 23.273438 20.929688 L 23.144531 21.117188 L 23.050781 21.210938 L 22.898438 21.304688 L 22.78125 21.351562 L 22.6875 21.375 L 22.523438 21.375 L 22.382812 21.339844 L 22.289062 21.28125 L 22.242188 21.222656 L 22.253906 21.164062 L 22.289062 21.128906 L 22.546875 21.140625 L 22.6875 21.140625 L 22.886719 21.105469 L 23.027344 21.046875 L 23.15625 20.953125 L 23.226562 20.871094 L 23.320312 20.707031 Z M 23.355469 20.625 "/>
<path style=" stroke:none;fill-rule:nonzero;fill:rgb(36.078431%,69.803922%,80.784314%);fill-opacity:1;" d="M 20.976562 19.007812 L 20.988281 19.03125 L 20.859375 19.242188 L 20.835938 19.230469 L 20.859375 19.183594 Z M 20.976562 19.007812 "/>
<path style=" stroke:none;fill-rule:nonzero;fill:rgb(36.470588%,70.196078%,80.784314%);fill-opacity:1;" d="M 1.59375 7.886719 L 1.605469 7.921875 L 1.523438 8.074219 L 1.511719 8.050781 L 1.570312 7.910156 Z M 1.59375 7.886719 "/>
</g>
</svg>
