<?xml version="1.0" encoding="UTF-8"?>
<svg xmlns="http://www.w3.org/2000/svg" xmlns:xlink="http://www.w3.org/1999/xlink" width="24px" height="24px" viewBox="0 0 24 24" version="1.1">
<g id="surface1">
<path style=" stroke:none;fill-rule:nonzero;fill:rgb(34.901961%,69.019608%,80%);fill-opacity:1;" d="M 15.339844 6.082031 L 15.410156 6.105469 L 15.691406 6.28125 L 15.949219 6.457031 L 16.101562 6.574219 L 16.300781 6.738281 L 16.453125 6.867188 L 16.570312 6.972656 L 16.605469 6.996094 L 16.605469 7.019531 L 16.652344 7.042969 L 16.898438 7.289062 L 16.980469 7.382812 L 17.097656 7.511719 L 17.203125 7.640625 L 17.355469 7.828125 L 17.496094 8.027344 L 17.660156 8.261719 L 17.859375 8.589844 L 18.023438 8.894531 L 18.175781 9.210938 L 18.328125 9.585938 L 18.46875 10.007812 L 18.5625 10.347656 L 18.644531 10.734375 L 18.691406 11.039062 L 18.726562 11.34375 L 18.75 11.753906 L 18.75 12.117188 L 18.726562 12.527344 L 18.679688 12.925781 L 18.609375 13.335938 L 18.539062 13.628906 L 18.457031 13.875 L 18.328125 14.167969 L 18.210938 14.402344 L 18.058594 14.648438 L 17.90625 14.859375 L 17.777344 15.023438 L 17.648438 15.175781 L 17.519531 15.304688 L 17.4375 15.398438 L 17.320312 15.515625 L 17.191406 15.621094 L 17.0625 15.738281 L 16.863281 15.890625 L 16.628906 16.066406 L 16.347656 16.242188 L 16.148438 16.359375 L 15.84375 16.523438 L 15.550781 16.664062 L 15.234375 16.792969 L 14.789062 16.945312 L 14.390625 17.050781 L 13.875 17.144531 L 13.558594 17.179688 L 13.324219 17.191406 L 13.078125 17.191406 L 12.691406 17.167969 L 12.433594 17.121094 L 12.257812 17.050781 L 12.140625 16.96875 L 12.058594 16.898438 L 11.976562 16.78125 L 11.929688 16.6875 L 11.90625 16.59375 L 11.90625 16.441406 L 11.953125 16.289062 L 12.035156 16.171875 L 12.128906 16.089844 L 12.257812 16.007812 L 12.398438 15.949219 L 12.5625 15.914062 L 12.667969 15.902344 L 12.9375 15.902344 L 13.195312 15.9375 L 13.734375 16.066406 L 14.0625 16.113281 L 14.214844 16.125 L 14.34375 16.125 L 14.636719 16.089844 L 14.953125 16.007812 L 15.234375 15.890625 L 15.421875 15.773438 L 15.5625 15.644531 L 15.621094 15.539062 L 15.632812 15.515625 L 15.632812 15.375 L 15.597656 15.304688 L 15.527344 15.246094 L 15.410156 15.199219 L 15.28125 15.175781 L 15.035156 15.164062 L 14.789062 15.1875 L 14.460938 15.246094 L 14.144531 15.328125 L 13.722656 15.445312 L 13.183594 15.574219 L 12.65625 15.667969 L 12.304688 15.714844 L 12.175781 15.726562 L 11.613281 15.726562 L 11.296875 15.679688 L 11.074219 15.621094 L 10.886719 15.527344 L 10.78125 15.457031 L 10.664062 15.351562 L 10.558594 15.246094 L 10.476562 15.128906 L 10.382812 14.941406 L 10.335938 14.777344 L 10.324219 14.695312 L 10.324219 14.578125 L 10.359375 14.402344 L 10.441406 14.238281 L 10.570312 14.097656 L 10.699219 14.003906 L 10.828125 13.945312 L 10.980469 13.898438 L 11.109375 13.875 L 11.472656 13.875 L 11.835938 13.921875 L 12.691406 14.109375 L 13.125 14.191406 L 13.429688 14.226562 L 13.617188 14.238281 L 13.910156 14.238281 L 14.214844 14.191406 L 14.53125 14.121094 L 14.777344 14.050781 L 15.023438 13.957031 L 15.410156 13.769531 L 15.550781 13.6875 L 15.761719 13.546875 L 15.972656 13.394531 L 16.089844 13.289062 L 16.183594 13.207031 L 16.441406 12.949219 L 16.570312 12.785156 L 16.6875 12.632812 L 16.828125 12.421875 L 16.957031 12.199219 L 17.109375 11.871094 L 17.203125 11.625 L 17.296875 11.296875 L 17.355469 10.992188 L 17.390625 10.628906 L 17.402344 10.394531 L 17.402344 10.148438 L 17.378906 9.796875 L 17.34375 9.515625 L 17.261719 9.09375 L 17.167969 8.742188 L 17.039062 8.367188 L 16.898438 8.039062 L 16.757812 7.746094 L 16.59375 7.464844 L 16.464844 7.253906 L 16.324219 7.054688 L 16.160156 6.84375 L 16.019531 6.691406 L 15.9375 6.597656 L 15.785156 6.445312 L 15.65625 6.339844 L 15.503906 6.210938 L 15.339844 6.09375 Z M 15.339844 6.082031 "/>
<path style=" stroke:none;fill-rule:nonzero;fill:rgb(34.901961%,69.019608%,80%);fill-opacity:1;" d="M 10.78125 6.785156 L 10.980469 6.785156 L 11.296875 6.808594 L 11.53125 6.84375 L 11.671875 6.890625 L 11.800781 6.960938 L 11.917969 7.066406 L 12 7.160156 L 12.058594 7.277344 L 12.082031 7.347656 L 12.082031 7.558594 L 12.035156 7.6875 L 11.953125 7.804688 L 11.847656 7.898438 L 11.660156 7.992188 L 11.460938 8.050781 L 11.296875 8.074219 L 11.0625 8.074219 L 10.6875 8.015625 L 10.265625 7.910156 L 10.078125 7.875 L 9.972656 7.863281 L 9.550781 7.863281 L 9.304688 7.898438 L 9.023438 7.980469 L 8.777344 8.085938 L 8.636719 8.167969 L 8.519531 8.261719 L 8.4375 8.34375 L 8.367188 8.472656 L 8.367188 8.613281 L 8.414062 8.695312 L 8.507812 8.753906 L 8.613281 8.789062 L 8.800781 8.8125 L 8.941406 8.8125 L 9.304688 8.777344 L 9.539062 8.730469 L 10.113281 8.578125 L 10.5 8.472656 L 11.097656 8.34375 L 11.390625 8.296875 L 11.894531 8.25 L 12.421875 8.25 L 12.726562 8.296875 L 12.914062 8.355469 L 13.054688 8.414062 L 13.230469 8.53125 L 13.347656 8.636719 L 13.441406 8.730469 L 13.546875 8.894531 L 13.628906 9.070312 L 13.664062 9.210938 L 13.675781 9.351562 L 13.652344 9.527344 L 13.59375 9.679688 L 13.488281 9.832031 L 13.382812 9.925781 L 13.242188 10.007812 L 13.066406 10.066406 L 12.914062 10.101562 L 12.597656 10.101562 L 12.351562 10.078125 L 12.070312 10.03125 L 10.980469 9.796875 L 10.617188 9.75 L 10.417969 9.738281 L 10.148438 9.738281 L 9.855469 9.773438 L 9.46875 9.855469 L 9.234375 9.925781 L 8.941406 10.042969 L 8.707031 10.148438 L 8.484375 10.265625 L 8.191406 10.464844 L 8.003906 10.605469 L 7.875 10.722656 L 7.78125 10.804688 L 7.652344 10.933594 L 7.570312 11.027344 L 7.429688 11.191406 L 7.265625 11.414062 L 7.113281 11.660156 L 6.949219 11.976562 L 6.820312 12.292969 L 6.714844 12.632812 L 6.644531 12.996094 L 6.609375 13.277344 L 6.597656 13.417969 L 6.597656 13.980469 L 6.632812 14.34375 L 6.703125 14.765625 L 6.796875 15.140625 L 6.9375 15.5625 L 7.066406 15.878906 L 7.183594 16.136719 L 7.324219 16.394531 L 7.464844 16.628906 L 7.628906 16.863281 L 7.78125 17.0625 L 7.886719 17.191406 L 8.015625 17.332031 L 8.285156 17.601562 L 8.449219 17.730469 L 8.601562 17.835938 L 8.695312 17.90625 L 8.660156 17.917969 L 8.390625 17.753906 L 8.121094 17.566406 L 7.910156 17.414062 L 7.746094 17.285156 L 7.582031 17.144531 L 7.429688 17.003906 L 7.335938 16.921875 L 7.007812 16.59375 L 6.902344 16.464844 L 6.808594 16.359375 L 6.503906 15.960938 L 6.316406 15.679688 L 6.164062 15.433594 L 5.976562 15.09375 L 5.8125 14.753906 L 5.648438 14.34375 L 5.53125 13.992188 L 5.425781 13.605469 L 5.34375 13.207031 L 5.296875 12.890625 L 5.261719 12.539062 L 5.25 12.351562 L 5.25 11.71875 L 5.296875 11.203125 L 5.355469 10.816406 L 5.4375 10.417969 L 5.496094 10.21875 L 5.601562 9.9375 L 5.71875 9.691406 L 5.847656 9.46875 L 5.988281 9.257812 L 6.082031 9.128906 L 6.210938 8.964844 L 6.339844 8.8125 L 6.433594 8.71875 L 6.445312 8.695312 L 6.46875 8.695312 L 6.492188 8.648438 L 6.667969 8.472656 L 6.761719 8.390625 L 6.925781 8.25 L 7.324219 7.945312 L 7.523438 7.816406 L 7.769531 7.664062 L 8.027344 7.523438 L 8.320312 7.371094 L 8.742188 7.195312 L 9.222656 7.03125 L 9.515625 6.949219 L 9.996094 6.855469 L 10.347656 6.808594 L 10.488281 6.796875 Z M 10.78125 6.785156 "/>
<path style=" stroke:none;fill-rule:nonzero;fill:rgb(99.215686%,99.215686%,99.215686%);fill-opacity:1;" d="M 8.390625 10.710938 L 8.414062 10.722656 L 8.296875 10.898438 L 8.15625 11.167969 L 8.0625 11.414062 L 8.003906 11.625 L 7.96875 11.824219 L 7.957031 11.964844 L 7.957031 12.199219 L 7.992188 12.480469 L 8.050781 12.738281 L 8.132812 12.972656 L 8.261719 13.253906 L 8.378906 13.464844 L 8.53125 13.699219 L 8.683594 13.910156 L 8.8125 14.074219 L 8.917969 14.191406 L 9 14.285156 L 9.105469 14.402344 L 9.234375 14.542969 L 9.46875 14.777344 L 9.5625 14.859375 L 9.667969 14.964844 L 9.761719 15.046875 L 9.902344 15.175781 L 10.03125 15.28125 L 10.148438 15.386719 L 10.3125 15.515625 L 10.5 15.667969 L 10.652344 15.808594 L 10.734375 15.890625 L 10.863281 16.054688 L 10.992188 16.230469 L 11.109375 16.429688 L 11.214844 16.652344 L 11.285156 16.851562 L 11.34375 17.074219 L 11.378906 17.296875 L 11.378906 17.636719 L 11.34375 17.835938 L 11.285156 18.011719 L 11.191406 18.1875 L 11.0625 18.328125 L 10.96875 18.410156 L 10.78125 18.492188 L 10.59375 18.539062 L 10.40625 18.539062 L 10.195312 18.503906 L 9.890625 18.421875 L 9.5625 18.304688 L 9.328125 18.199219 L 9.082031 18.070312 L 8.859375 17.929688 L 8.660156 17.789062 L 8.507812 17.671875 L 8.355469 17.542969 L 8.238281 17.4375 L 8.015625 17.214844 L 7.804688 16.957031 L 7.640625 16.734375 L 7.488281 16.5 L 7.347656 16.253906 L 7.21875 16.007812 L 7.078125 15.667969 L 6.949219 15.28125 L 6.855469 14.894531 L 6.796875 14.554688 L 6.761719 14.167969 L 6.761719 13.699219 L 6.796875 13.324219 L 6.855469 12.996094 L 6.9375 12.679688 L 7.03125 12.410156 L 7.148438 12.140625 L 7.277344 11.894531 L 7.40625 11.695312 L 7.523438 11.53125 L 7.652344 11.367188 L 7.816406 11.191406 L 7.96875 11.039062 L 8.097656 10.933594 L 8.273438 10.792969 Z M 8.390625 10.710938 "/>
<path style=" stroke:none;fill-rule:nonzero;fill:rgb(98.823529%,98.823529%,98.823529%);fill-opacity:1;" d="M 13.441406 5.4375 L 13.59375 5.4375 L 13.792969 5.472656 L 14.097656 5.554688 L 14.332031 5.636719 L 14.625 5.765625 L 14.929688 5.917969 L 15.152344 6.058594 L 15.351562 6.199219 L 15.503906 6.316406 L 15.621094 6.421875 L 15.714844 6.503906 L 15.996094 6.785156 L 16.101562 6.914062 L 16.253906 7.101562 L 16.371094 7.265625 L 16.5 7.464844 L 16.640625 7.710938 L 16.757812 7.933594 L 16.898438 8.261719 L 16.992188 8.519531 L 17.085938 8.847656 L 17.167969 9.246094 L 17.214844 9.585938 L 17.226562 9.738281 L 17.226562 10.359375 L 17.191406 10.675781 L 17.132812 11.003906 L 17.050781 11.308594 L 16.957031 11.578125 L 16.839844 11.847656 L 16.699219 12.117188 L 16.511719 12.398438 L 16.394531 12.550781 L 16.277344 12.679688 L 16.195312 12.773438 L 16.078125 12.890625 L 15.984375 12.972656 L 15.820312 13.113281 L 15.65625 13.230469 L 15.609375 13.265625 L 15.585938 13.253906 L 15.726562 13.019531 L 15.832031 12.820312 L 15.925781 12.574219 L 15.984375 12.375 L 16.019531 12.1875 L 16.03125 12.082031 L 16.03125 11.707031 L 15.996094 11.460938 L 15.925781 11.179688 L 15.808594 10.886719 L 15.703125 10.664062 L 15.550781 10.40625 L 15.398438 10.183594 L 15.257812 9.996094 L 15.152344 9.867188 L 15 9.691406 L 14.71875 9.386719 L 14.566406 9.234375 L 14.472656 9.152344 L 14.34375 9.023438 L 14.25 8.941406 L 14.121094 8.824219 L 13.992188 8.71875 L 13.863281 8.601562 L 13.734375 8.496094 L 13.535156 8.332031 L 13.40625 8.226562 L 13.265625 8.085938 L 13.183594 7.992188 L 13.066406 7.839844 L 12.925781 7.617188 L 12.808594 7.394531 L 12.703125 7.113281 L 12.644531 6.867188 L 12.609375 6.609375 L 12.609375 6.398438 L 12.644531 6.164062 L 12.714844 5.953125 L 12.820312 5.765625 L 12.949219 5.625 L 13.113281 5.519531 L 13.230469 5.472656 L 13.335938 5.449219 Z M 13.441406 5.4375 "/>
<path style=" stroke:none;fill-rule:nonzero;fill:rgb(34.901961%,69.019608%,80%);fill-opacity:1;" d="M 10.195312 5.636719 L 10.417969 5.636719 L 10.59375 5.671875 L 10.757812 5.742188 L 10.875 5.824219 L 10.980469 5.929688 L 11.039062 6.046875 L 11.050781 6.082031 L 11.050781 6.199219 L 11.003906 6.316406 L 10.921875 6.410156 L 10.839844 6.480469 L 10.640625 6.574219 L 10.441406 6.632812 L 10.171875 6.679688 L 9.632812 6.75 L 9.328125 6.808594 L 9.023438 6.890625 L 8.660156 7.019531 L 8.355469 7.148438 L 8.085938 7.277344 L 7.816406 7.429688 L 7.605469 7.558594 L 7.417969 7.6875 L 7.242188 7.816406 L 7.078125 7.945312 L 6.914062 8.085938 L 6.785156 8.191406 L 6.703125 8.273438 L 6.609375 8.355469 L 6.503906 8.472656 L 6.410156 8.566406 L 6.304688 8.695312 L 6.199219 8.8125 L 6.035156 9.035156 L 5.894531 9.246094 L 5.765625 9.457031 L 5.695312 9.585938 L 5.683594 9.550781 L 5.835938 9.210938 L 6.023438 8.824219 L 6.152344 8.578125 L 6.316406 8.308594 L 6.503906 8.039062 L 6.644531 7.851562 L 6.796875 7.664062 L 6.902344 7.535156 L 7.042969 7.382812 L 7.125 7.289062 L 7.324219 7.089844 L 7.417969 7.007812 L 7.535156 6.902344 L 7.628906 6.820312 L 7.792969 6.691406 L 7.992188 6.539062 L 8.261719 6.351562 L 8.542969 6.175781 L 8.730469 6.070312 L 8.976562 5.941406 L 9.304688 5.8125 L 9.539062 5.742188 L 9.878906 5.671875 Z M 10.195312 5.636719 "/>
<path style=" stroke:none;fill-rule:nonzero;fill:rgb(34.901961%,69.019608%,80%);fill-opacity:1;" d="M 18.292969 14.414062 L 18.304688 14.449219 L 18.046875 15.011719 L 17.917969 15.269531 L 17.777344 15.515625 L 17.648438 15.726562 L 17.507812 15.925781 L 17.414062 16.054688 L 17.285156 16.21875 L 17.179688 16.347656 L 17.027344 16.511719 L 16.945312 16.605469 L 16.59375 16.957031 L 16.5 17.039062 L 16.382812 17.144531 L 16.21875 17.273438 L 16.007812 17.4375 L 15.808594 17.578125 L 15.632812 17.695312 L 15.386719 17.847656 L 15.152344 17.976562 L 14.917969 18.082031 L 14.601562 18.199219 L 14.320312 18.269531 L 13.96875 18.328125 L 13.839844 18.339844 L 13.605469 18.339844 L 13.429688 18.316406 L 13.277344 18.257812 L 13.171875 18.199219 L 13.066406 18.117188 L 12.984375 18 L 12.9375 17.871094 L 12.949219 17.753906 L 13.007812 17.636719 L 13.054688 17.578125 L 13.207031 17.472656 L 13.335938 17.414062 L 13.511719 17.355469 L 13.757812 17.308594 L 14.355469 17.238281 L 14.683594 17.167969 L 15.058594 17.0625 L 15.363281 16.957031 L 15.667969 16.828125 L 15.972656 16.675781 L 16.289062 16.488281 L 16.546875 16.324219 L 16.757812 16.171875 L 16.945312 16.019531 L 17.074219 15.914062 L 17.355469 15.65625 L 17.460938 15.550781 L 17.542969 15.457031 L 17.683594 15.304688 L 17.789062 15.175781 L 17.90625 15.023438 L 18.046875 14.824219 L 18.175781 14.625 Z M 18.292969 14.414062 "/>
<path style=" stroke:none;fill-rule:nonzero;fill:rgb(34.901961%,69.019608%,80%);fill-opacity:1;" d="M 5.542969 6.269531 L 5.707031 6.28125 L 5.824219 6.328125 L 5.953125 6.421875 L 6.082031 6.550781 L 6.1875 6.703125 L 6.28125 6.890625 L 6.351562 7.078125 L 6.386719 7.242188 L 6.398438 7.453125 L 6.375 7.640625 L 6.304688 7.875 L 6.175781 8.15625 L 5.976562 8.589844 L 5.8125 8.988281 L 5.636719 9.480469 L 5.507812 9.914062 L 5.402344 10.335938 L 5.308594 10.839844 L 5.261719 11.191406 L 5.226562 11.601562 L 5.214844 11.917969 L 5.191406 11.90625 L 5.179688 11.683594 L 5.179688 11.085938 L 5.203125 10.710938 L 5.25 10.289062 L 5.378906 9.480469 L 5.4375 9.082031 L 5.472656 8.730469 L 5.484375 8.542969 L 5.484375 8.15625 L 5.449219 7.886719 L 5.390625 7.6875 L 5.285156 7.453125 L 5.132812 7.183594 L 5.074219 7.042969 L 5.0625 6.984375 L 5.0625 6.761719 L 5.109375 6.609375 L 5.179688 6.480469 L 5.308594 6.351562 L 5.425781 6.292969 Z M 5.542969 6.269531 "/>
<path style=" stroke:none;fill-rule:nonzero;fill:rgb(34.901961%,69.019608%,80%);fill-opacity:1;" d="M 18.796875 12 L 18.808594 12 L 18.820312 12.480469 L 18.820312 12.75 L 18.796875 13.21875 L 18.75 13.652344 L 18.679688 14.121094 L 18.574219 14.789062 L 18.527344 15.199219 L 18.515625 15.398438 L 18.515625 15.820312 L 18.539062 16.042969 L 18.597656 16.265625 L 18.703125 16.511719 L 18.84375 16.757812 L 18.902344 16.875 L 18.9375 17.015625 L 18.9375 17.203125 L 18.902344 17.34375 L 18.820312 17.496094 L 18.738281 17.589844 L 18.609375 17.671875 L 18.480469 17.707031 L 18.328125 17.707031 L 18.199219 17.660156 L 18.082031 17.589844 L 17.976562 17.496094 L 17.871094 17.367188 L 17.753906 17.167969 L 17.671875 16.980469 L 17.613281 16.746094 L 17.601562 16.617188 L 17.601562 16.5 L 17.625 16.335938 L 17.683594 16.136719 L 17.8125 15.84375 L 17.976562 15.492188 L 18.152344 15.070312 L 18.316406 14.625 L 18.410156 14.34375 L 18.539062 13.863281 L 18.621094 13.511719 L 18.703125 13.042969 L 18.75 12.621094 L 18.785156 12.082031 Z M 18.796875 12 "/>
<path style=" stroke:none;fill-rule:nonzero;fill:rgb(34.901961%,69.019608%,80%);fill-opacity:1;" d="M 17.367188 16.289062 L 17.378906 16.3125 L 17.226562 16.558594 L 17.085938 16.804688 L 16.96875 17.027344 L 16.816406 17.367188 L 16.722656 17.671875 L 16.6875 17.882812 L 16.652344 18.234375 L 16.605469 18.421875 L 16.546875 18.539062 L 16.5 18.597656 L 16.382812 18.679688 L 16.265625 18.726562 L 16.21875 18.738281 L 16.066406 18.738281 L 15.949219 18.703125 L 15.855469 18.632812 L 15.785156 18.539062 L 15.761719 18.46875 L 15.761719 18.304688 L 15.820312 18.128906 L 15.914062 17.964844 L 16.03125 17.8125 L 16.136719 17.683594 L 16.324219 17.484375 L 16.664062 17.144531 L 16.746094 17.050781 L 16.898438 16.886719 L 17.003906 16.757812 L 17.167969 16.558594 L 17.34375 16.324219 Z M 17.367188 16.289062 "/>
<path style=" stroke:none;fill-rule:nonzero;fill:rgb(34.901961%,69.019608%,80%);fill-opacity:1;" d="M 7.78125 5.25 L 7.96875 5.25 L 8.085938 5.296875 L 8.15625 5.355469 L 8.226562 5.472656 L 8.238281 5.519531 L 8.238281 5.671875 L 8.179688 5.859375 L 8.074219 6.046875 L 7.921875 6.234375 L 7.839844 6.328125 L 7.699219 6.480469 L 7.617188 6.5625 L 7.59375 6.5625 L 7.582031 6.597656 L 7.558594 6.597656 L 7.558594 6.621094 L 7.464844 6.703125 L 7.371094 6.796875 L 7.359375 6.820312 L 7.335938 6.820312 L 7.3125 6.867188 L 7.195312 6.984375 L 7.089844 7.113281 L 6.984375 7.230469 L 6.878906 7.359375 L 6.726562 7.558594 L 6.667969 7.617188 L 6.691406 7.558594 L 6.796875 7.382812 L 6.960938 7.078125 L 7.066406 6.878906 L 7.195312 6.574219 L 7.265625 6.363281 L 7.3125 6.105469 L 7.347656 5.742188 L 7.382812 5.601562 L 7.429688 5.496094 L 7.5 5.402344 L 7.605469 5.308594 L 7.722656 5.261719 Z M 7.78125 5.25 "/>
<path style=" stroke:none;fill-rule:nonzero;fill:rgb(84.705882%,94.117647%,98.431373%);fill-opacity:1;" d="M 10.910156 15.035156 L 11.039062 15.046875 L 11.519531 15.199219 L 11.882812 15.28125 L 12.1875 15.328125 L 12.527344 15.351562 L 12.902344 15.351562 L 13.289062 15.304688 L 13.488281 15.269531 L 13.523438 15.28125 L 13.40625 15.328125 L 13.078125 15.410156 L 12.84375 15.457031 L 12.410156 15.515625 L 12.046875 15.539062 L 11.71875 15.527344 L 11.4375 15.492188 L 11.214844 15.433594 L 11.015625 15.351562 L 10.863281 15.257812 L 10.792969 15.175781 L 10.804688 15.09375 L 10.875 15.046875 Z M 10.910156 15.035156 "/>
<path style=" stroke:none;fill-rule:nonzero;fill:rgb(84.705882%,94.117647%,98.431373%);fill-opacity:1;" d="M 11.824219 8.449219 L 12.269531 8.449219 L 12.632812 8.496094 L 12.832031 8.554688 L 12.984375 8.625 L 13.125 8.707031 L 13.207031 8.800781 L 13.195312 8.882812 L 13.136719 8.929688 L 13.113281 8.941406 L 13.007812 8.941406 L 12.527344 8.789062 L 12.246094 8.71875 L 11.824219 8.648438 L 11.519531 8.625 L 11.15625 8.625 L 10.816406 8.660156 L 10.535156 8.707031 L 10.476562 8.707031 L 10.511719 8.683594 L 10.664062 8.636719 L 10.957031 8.566406 L 11.367188 8.496094 L 11.660156 8.460938 Z M 11.824219 8.449219 "/>
<path style=" stroke:none;fill-rule:nonzero;fill:rgb(84.705882%,94.117647%,98.431373%);fill-opacity:1;" d="M 10.125 5.765625 L 10.359375 5.765625 L 10.535156 5.789062 L 10.722656 5.859375 L 10.839844 5.941406 L 10.886719 6 L 10.875 6.058594 L 10.828125 6.082031 L 10.710938 6.082031 L 10.324219 6 L 10.160156 5.976562 L 9.902344 5.964844 L 9.632812 5.988281 L 9.339844 6.046875 L 8.941406 6.152344 L 8.847656 6.164062 L 8.882812 6.128906 L 9.222656 5.988281 L 9.574219 5.871094 L 9.855469 5.800781 L 9.996094 5.777344 Z M 10.125 5.765625 "/>
<path style=" stroke:none;fill-rule:nonzero;fill:rgb(84.705882%,94.117647%,98.431373%);fill-opacity:1;" d="M 15.09375 17.824219 L 15.128906 17.835938 L 14.964844 17.917969 L 14.660156 18.035156 L 14.320312 18.140625 L 14.027344 18.199219 L 13.945312 18.210938 L 13.59375 18.210938 L 13.40625 18.164062 L 13.265625 18.105469 L 13.160156 18.035156 L 13.113281 17.976562 L 13.125 17.917969 L 13.171875 17.894531 L 13.324219 17.90625 L 13.546875 17.964844 L 13.78125 18 L 13.910156 18.011719 L 14.167969 18.011719 L 14.402344 17.988281 L 14.695312 17.929688 Z M 15.09375 17.824219 "/>
<path style=" stroke:none;fill-rule:nonzero;fill:rgb(84.705882%,94.117647%,98.431373%);fill-opacity:1;" d="M 10.546875 6.9375 L 10.992188 6.9375 L 11.332031 6.984375 L 11.519531 7.042969 L 11.71875 7.148438 L 11.824219 7.242188 L 11.835938 7.300781 L 11.777344 7.359375 L 11.683594 7.347656 L 11.367188 7.230469 L 11.132812 7.148438 L 10.816406 7.066406 L 10.675781 7.042969 L 10.535156 7.03125 L 9.972656 7.03125 L 9.984375 7.007812 L 10.277344 6.960938 Z M 10.546875 6.9375 "/>
<path style=" stroke:none;fill-rule:nonzero;fill:rgb(84.705882%,94.117647%,98.431373%);fill-opacity:1;" d="M 12.234375 16.617188 L 12.328125 16.628906 L 12.738281 16.792969 L 12.960938 16.863281 L 13.253906 16.921875 L 13.429688 16.945312 L 13.582031 16.957031 L 13.957031 16.957031 L 13.957031 16.980469 L 13.863281 17.003906 L 13.59375 17.039062 L 12.996094 17.039062 L 12.726562 17.003906 L 12.515625 16.945312 L 12.316406 16.851562 L 12.210938 16.769531 L 12.175781 16.734375 L 12.175781 16.664062 Z M 12.234375 16.617188 "/>
<path style=" stroke:none;fill-rule:nonzero;fill:rgb(98.431373%,98.823529%,98.823529%);fill-opacity:1;" d="M 5.53125 6.351562 L 5.683594 6.351562 L 5.800781 6.410156 L 5.8125 6.421875 L 5.8125 6.480469 L 5.800781 6.492188 L 5.542969 6.492188 L 5.414062 6.515625 L 5.296875 6.574219 L 5.203125 6.679688 L 5.15625 6.75 L 5.144531 6.75 L 5.15625 6.65625 L 5.238281 6.527344 L 5.332031 6.433594 L 5.472656 6.363281 Z M 5.53125 6.351562 "/>
<path style=" stroke:none;fill-rule:nonzero;fill:rgb(96.862745%,98.039216%,98.823529%);fill-opacity:1;" d="M 7.78125 5.308594 L 7.863281 5.320312 L 7.851562 5.367188 L 7.746094 5.449219 L 7.652344 5.53125 L 7.570312 5.625 L 7.5 5.765625 L 7.429688 5.988281 L 7.417969 5.988281 L 7.40625 5.859375 L 7.441406 5.648438 L 7.5 5.507812 L 7.605469 5.390625 L 7.734375 5.320312 Z M 7.78125 5.308594 "/>
<path style=" stroke:none;fill-rule:nonzero;fill:rgb(84.705882%,94.117647%,98.431373%);fill-opacity:1;" d="M 18.84375 17.226562 L 18.855469 17.273438 L 18.785156 17.414062 L 18.679688 17.53125 L 18.5625 17.601562 L 18.480469 17.625 L 18.328125 17.625 L 18.234375 17.589844 L 18.1875 17.542969 L 18.199219 17.496094 L 18.257812 17.484375 L 18.515625 17.484375 L 18.632812 17.449219 L 18.726562 17.378906 L 18.796875 17.308594 Z M 18.84375 17.226562 "/>
<path style=" stroke:none;fill-rule:nonzero;fill:rgb(85.098039%,94.117647%,98.431373%);fill-opacity:1;" d="M 16.570312 18 L 16.582031 18 L 16.582031 18.1875 L 16.558594 18.328125 L 16.511719 18.445312 L 16.417969 18.574219 L 16.324219 18.632812 L 16.207031 18.667969 L 16.148438 18.65625 L 16.148438 18.609375 L 16.335938 18.46875 L 16.417969 18.375 L 16.5 18.210938 Z M 16.570312 18 "/>
<path style=" stroke:none;fill-rule:nonzero;fill:rgb(84.705882%,94.117647%,98.431373%);fill-opacity:1;" d="M 5.53125 6.351562 L 5.683594 6.351562 L 5.800781 6.410156 L 5.8125 6.421875 L 5.8125 6.480469 L 5.800781 6.492188 L 5.542969 6.492188 L 5.414062 6.515625 L 5.296875 6.574219 L 5.203125 6.679688 L 5.15625 6.75 L 5.144531 6.75 L 5.15625 6.65625 L 5.226562 6.550781 L 5.238281 6.585938 L 5.378906 6.492188 L 5.484375 6.457031 L 5.695312 6.457031 L 5.777344 6.46875 L 5.777344 6.421875 L 5.683594 6.398438 L 5.507812 6.386719 L 5.390625 6.433594 L 5.320312 6.480469 L 5.296875 6.46875 L 5.355469 6.421875 L 5.472656 6.363281 Z M 5.53125 6.351562 "/>
<path style=" stroke:none;fill-rule:nonzero;fill:rgb(99.215686%,99.215686%,99.215686%);fill-opacity:1;" d="M 18.75 17.378906 L 18.785156 17.390625 L 18.679688 17.507812 L 18.550781 17.578125 L 18.492188 17.589844 L 18.328125 17.589844 L 18.234375 17.554688 L 18.234375 17.53125 L 18.292969 17.519531 L 18.328125 17.53125 L 18.457031 17.53125 L 18.609375 17.484375 L 18.714844 17.414062 Z M 18.75 17.378906 "/>
<path style=" stroke:none;fill-rule:nonzero;fill:rgb(97.647059%,98.431373%,98.823529%);fill-opacity:1;" d="M 10.699219 5.90625 L 10.757812 5.917969 L 10.875 5.976562 L 10.886719 6.046875 L 10.875 6.058594 L 10.746094 6.058594 L 10.710938 5.953125 Z M 10.699219 5.90625 "/>
<path style=" stroke:none;fill-rule:nonzero;fill:rgb(99.215686%,99.215686%,99.215686%);fill-opacity:1;" d="M 14.613281 17.976562 L 14.660156 17.976562 L 14.660156 18 L 14.472656 18.070312 L 14.332031 18.105469 L 14.273438 18.09375 L 14.308594 18.058594 L 14.484375 18.011719 Z M 14.613281 17.976562 "/>
<path style=" stroke:none;fill-rule:nonzero;fill:rgb(84.705882%,94.117647%,98.431373%);fill-opacity:1;" d="M 7.476562 5.554688 L 7.488281 5.601562 L 7.453125 5.71875 L 7.453125 5.824219 L 7.476562 5.765625 L 7.488281 5.800781 L 7.429688 5.988281 L 7.417969 5.988281 L 7.40625 5.859375 L 7.441406 5.648438 Z M 7.476562 5.554688 "/>
<path style=" stroke:none;fill-rule:nonzero;fill:rgb(84.705882%,94.117647%,98.431373%);fill-opacity:1;" d="M 7.769531 5.402344 L 7.792969 5.414062 L 7.6875 5.496094 L 7.582031 5.601562 L 7.546875 5.660156 L 7.535156 5.636719 L 7.605469 5.53125 L 7.746094 5.414062 Z M 7.769531 5.402344 "/>
<path style=" stroke:none;fill-rule:nonzero;fill:rgb(34.901961%,69.019608%,80%);fill-opacity:1;" d="M 15.316406 6.070312 L 15.339844 6.082031 Z M 15.316406 6.070312 "/>
</g>
</svg>
